%TF.GenerationSoftware,KiCad,Pcbnew,10.0.5*%
%TF.CreationDate,2026-07-27T17:38:08+01:00*%
%TF.ProjectId,gk-controls,676b2d63-6f6e-4747-926f-6c732e6b6963,rev?*%
%TF.SameCoordinates,Original*%
%TF.FileFunction,Paste,Top*%
%TF.FilePolarity,Positive*%
%FSLAX46Y46*%
G04 Gerber Fmt 4.6, Leading zero omitted, Abs format (unit mm)*
G04 Created by KiCad (PCBNEW 10.0.5) date 2026-07-27 17:38:08*
%MOMM*%
%LPD*%
G01*
G04 APERTURE LIST*
G04 Aperture macros list*
%AMRoundRect*
0 Rectangle with rounded corners*
0 $1 Rounding radius*
0 $2 $3 $4 $5 $6 $7 $8 $9 X,Y pos of 4 corners*
0 Add a 4 corners polygon primitive as box body*
4,1,4,$2,$3,$4,$5,$6,$7,$8,$9,$2,$3,0*
0 Add four circle primitives for the rounded corners*
1,1,$1+$1,$2,$3*
1,1,$1+$1,$4,$5*
1,1,$1+$1,$6,$7*
1,1,$1+$1,$8,$9*
0 Add four rect primitives between the rounded corners*
20,1,$1+$1,$2,$3,$4,$5,0*
20,1,$1+$1,$4,$5,$6,$7,0*
20,1,$1+$1,$6,$7,$8,$9,0*
20,1,$1+$1,$8,$9,$2,$3,0*%
%AMRotRect*
0 Rectangle, with rotation*
0 The origin of the aperture is its center*
0 $1 length*
0 $2 width*
0 $3 Rotation angle, in degrees counterclockwise*
0 Add horizontal line*
21,1,$1,$2,0,0,$3*%
G04 Aperture macros list end*
%ADD10R,0.300000X1.100000*%
%ADD11R,2.300000X3.100000*%
%ADD12RoundRect,0.200000X-0.200000X-0.275000X0.200000X-0.275000X0.200000X0.275000X-0.200000X0.275000X0*%
%ADD13RoundRect,0.225000X-0.225000X-0.250000X0.225000X-0.250000X0.225000X0.250000X-0.225000X0.250000X0*%
%ADD14RoundRect,0.200000X0.200000X0.275000X-0.200000X0.275000X-0.200000X-0.275000X0.200000X-0.275000X0*%
%ADD15RoundRect,0.200000X-0.275000X0.200000X-0.275000X-0.200000X0.275000X-0.200000X0.275000X0.200000X0*%
%ADD16RoundRect,0.250000X-0.525000X-0.250000X0.525000X-0.250000X0.525000X0.250000X-0.525000X0.250000X0*%
%ADD17RoundRect,0.225000X0.250000X-0.225000X0.250000X0.225000X-0.250000X0.225000X-0.250000X-0.225000X0*%
%ADD18RoundRect,0.150000X0.150000X-0.825000X0.150000X0.825000X-0.150000X0.825000X-0.150000X-0.825000X0*%
%ADD19RotRect,0.900000X0.800000X135.000000*%
%ADD20RoundRect,0.225000X0.225000X0.250000X-0.225000X0.250000X-0.225000X-0.250000X0.225000X-0.250000X0*%
%ADD21RoundRect,0.250000X-0.475000X0.250000X-0.475000X-0.250000X0.475000X-0.250000X0.475000X0.250000X0*%
%ADD22RoundRect,0.250000X0.475000X-0.250000X0.475000X0.250000X-0.475000X0.250000X-0.475000X-0.250000X0*%
%ADD23RoundRect,0.225000X-0.250000X0.225000X-0.250000X-0.225000X0.250000X-0.225000X0.250000X0.225000X0*%
%ADD24RoundRect,0.200000X0.275000X-0.200000X0.275000X0.200000X-0.275000X0.200000X-0.275000X-0.200000X0*%
%ADD25RoundRect,0.100000X-0.637500X-0.100000X0.637500X-0.100000X0.637500X0.100000X-0.637500X0.100000X0*%
%ADD26RotRect,0.900000X0.800000X45.000000*%
%ADD27RoundRect,0.250000X-0.250000X-0.475000X0.250000X-0.475000X0.250000X0.475000X-0.250000X0.475000X0*%
%ADD28R,0.480000X0.800000*%
%ADD29R,0.800000X0.480000*%
G04 APERTURE END LIST*
D10*
%TO.C,J7*%
X164840000Y-66710000D03*
X164340000Y-66710000D03*
X163840000Y-66710000D03*
X163340000Y-66710000D03*
X162840000Y-66710000D03*
X162340000Y-66710000D03*
D11*
X166510000Y-65010000D03*
X160670000Y-65010000D03*
%TD*%
D12*
%TO.C,R47*%
X102553000Y-74320400D03*
X104203000Y-74320400D03*
%TD*%
%TO.C,R36*%
X148368000Y-124643000D03*
X150018000Y-124643000D03*
%TD*%
%TO.C,R11*%
X120536200Y-73152000D03*
X122186200Y-73152000D03*
%TD*%
D13*
%TO.C,C23*%
X143973000Y-128453000D03*
X145523000Y-128453000D03*
%TD*%
D14*
%TO.C,R49*%
X186499000Y-106883200D03*
X184849000Y-106883200D03*
%TD*%
D15*
%TO.C,R45*%
X195580000Y-104585000D03*
X195580000Y-106235000D03*
%TD*%
D12*
%TO.C,R35*%
X143923000Y-124643000D03*
X145573000Y-124643000D03*
%TD*%
D13*
%TO.C,C21*%
X134448000Y-75113000D03*
X135998000Y-75113000D03*
%TD*%
D16*
%TO.C,SW_START1*%
X160400000Y-84425000D03*
X165650000Y-84425000D03*
X160400000Y-87625000D03*
X165650000Y-87625000D03*
%TD*%
D14*
%TO.C,R38*%
X150018000Y-126548000D03*
X148368000Y-126548000D03*
%TD*%
D17*
%TO.C,C4*%
X107950000Y-64275000D03*
X107950000Y-62725000D03*
%TD*%
D15*
%TO.C,R44*%
X193040000Y-104585000D03*
X193040000Y-106235000D03*
%TD*%
D18*
%TO.C,U2*%
X145542000Y-93915000D03*
X146812000Y-93915000D03*
X148082000Y-93915000D03*
X149352000Y-93915000D03*
X150622000Y-93915000D03*
X151892000Y-93915000D03*
X153162000Y-93915000D03*
X154432000Y-93915000D03*
X154432000Y-88965000D03*
X153162000Y-88965000D03*
X151892000Y-88965000D03*
X150622000Y-88965000D03*
X149352000Y-88965000D03*
X148082000Y-88965000D03*
X146812000Y-88965000D03*
X145542000Y-88965000D03*
%TD*%
D19*
%TO.C,D1*%
X144835132Y-79964660D03*
X145683660Y-79116132D03*
X144410868Y-77843340D03*
X143562340Y-78691868D03*
%TD*%
D12*
%TO.C,R2*%
X128048000Y-73208000D03*
X129698000Y-73208000D03*
%TD*%
D20*
%TO.C,C9*%
X156350000Y-111125000D03*
X154800000Y-111125000D03*
%TD*%
D16*
%TO.C,SW_SELECT1*%
X134350000Y-84420000D03*
X139600000Y-84420000D03*
X134350000Y-87620000D03*
X139600000Y-87620000D03*
%TD*%
D21*
%TO.C,C2*%
X206930000Y-99640000D03*
X206930000Y-101540000D03*
%TD*%
D22*
%TO.C,C1*%
X205663800Y-97343000D03*
X205663800Y-95443000D03*
%TD*%
D12*
%TO.C,R5*%
X146527000Y-114752000D03*
X148177000Y-114752000D03*
%TD*%
D23*
%TO.C,C6*%
X193040000Y-108445000D03*
X193040000Y-109995000D03*
%TD*%
D24*
%TO.C,R42*%
X102870000Y-68135000D03*
X102870000Y-66485000D03*
%TD*%
D14*
%TO.C,R48*%
X186295800Y-121615200D03*
X184645800Y-121615200D03*
%TD*%
D25*
%TO.C,U1*%
X150807500Y-113265000D03*
X150807500Y-113915000D03*
X150807500Y-114565000D03*
X150807500Y-115215000D03*
X150807500Y-115865000D03*
X150807500Y-116515000D03*
X150807500Y-117165000D03*
X150807500Y-117815000D03*
X150807500Y-118465000D03*
X150807500Y-119115000D03*
X150807500Y-119765000D03*
X150807500Y-120415000D03*
X156532500Y-120415000D03*
X156532500Y-119765000D03*
X156532500Y-119115000D03*
X156532500Y-118465000D03*
X156532500Y-117815000D03*
X156532500Y-117165000D03*
X156532500Y-116515000D03*
X156532500Y-115865000D03*
X156532500Y-115215000D03*
X156532500Y-114565000D03*
X156532500Y-113915000D03*
X156532500Y-113265000D03*
%TD*%
D20*
%TO.C,C8*%
X129648000Y-75113000D03*
X128098000Y-75113000D03*
%TD*%
D17*
%TO.C,C5*%
X102870000Y-64275000D03*
X102870000Y-62725000D03*
%TD*%
D26*
%TO.C,D2*%
X154316340Y-79116132D03*
X155164868Y-79964660D03*
X156437660Y-78691868D03*
X155589132Y-77843340D03*
%TD*%
D27*
%TO.C,C3*%
X192852000Y-101752400D03*
X194752000Y-101752400D03*
%TD*%
D12*
%TO.C,R29*%
X163354000Y-71303000D03*
X165004000Y-71303000D03*
%TD*%
D14*
%TO.C,R37*%
X145573000Y-126548000D03*
X143923000Y-126548000D03*
%TD*%
D13*
%TO.C,C10*%
X150990000Y-111125000D03*
X152540000Y-111125000D03*
%TD*%
D14*
%TO.C,R32*%
X165004000Y-73208000D03*
X163354000Y-73208000D03*
%TD*%
%TO.C,R4*%
X163918400Y-126542800D03*
X162268400Y-126542800D03*
%TD*%
D24*
%TO.C,R39*%
X110490000Y-68135000D03*
X110490000Y-66485000D03*
%TD*%
D15*
%TO.C,R43*%
X190500000Y-104585000D03*
X190500000Y-106235000D03*
%TD*%
D24*
%TO.C,R40*%
X107950000Y-68135000D03*
X107950000Y-66485000D03*
%TD*%
%TO.C,R41*%
X105410000Y-68135000D03*
X105410000Y-66485000D03*
%TD*%
D15*
%TO.C,R46*%
X198120000Y-104585000D03*
X198120000Y-106235000D03*
%TD*%
D28*
%TO.C,U3*%
X115865000Y-68265000D03*
X116515000Y-68265000D03*
X117165000Y-68265000D03*
X117815000Y-68265000D03*
X117815000Y-63815000D03*
X117165000Y-63815000D03*
X116515000Y-63815000D03*
X115865000Y-63815000D03*
%TD*%
D13*
%TO.C,C24*%
X148418000Y-128453000D03*
X149968000Y-128453000D03*
%TD*%
D23*
%TO.C,C7*%
X198120000Y-108445000D03*
X198120000Y-109995000D03*
%TD*%
D13*
%TO.C,C20*%
X163404000Y-75113000D03*
X164954000Y-75113000D03*
%TD*%
D12*
%TO.C,R1*%
X128048000Y-71303000D03*
X129698000Y-71303000D03*
%TD*%
D29*
%TO.C,U4*%
X193355000Y-114595000D03*
X193355000Y-115245000D03*
X193355000Y-115895000D03*
X193355000Y-116545000D03*
X197805000Y-116545000D03*
X197805000Y-115895000D03*
X197805000Y-115245000D03*
X197805000Y-114595000D03*
%TD*%
D12*
%TO.C,R30*%
X134398000Y-71303000D03*
X136048000Y-71303000D03*
%TD*%
D14*
%TO.C,R33*%
X136048000Y-73208000D03*
X134398000Y-73208000D03*
%TD*%
D13*
%TO.C,C11*%
X162318400Y-128447800D03*
X163868400Y-128447800D03*
%TD*%
D14*
%TO.C,R3*%
X163918400Y-124637800D03*
X162268400Y-124637800D03*
%TD*%
M02*
