M48
; DRILL file KiCad 10.0.5 date 2026-07-27T17:38:34
; FORMAT={-:-/ absolute / metric / decimal}
; #@! TF.CreationDate,2026-07-27T17:38:34+01:00
; #@! TF.GenerationSoftware,Kicad,Pcbnew,10.0.5
; #@! TF.FileFunction,Plated,1,2,PTH
FMAT,2
METRIC
; #@! TA.AperFunction,Plated,PTH,ViaDrill
T1C0.400
; #@! TA.AperFunction,Plated,PTH,ComponentDrill
T2C0.900
; #@! TA.AperFunction,Plated,PTH,ComponentDrill
T3C1.000
; #@! TA.AperFunction,Plated,PTH,ComponentDrill
T4C1.500
%
G90
G05
T1
X92.456Y-95.377
X92.456Y-113.284
X104.267Y-91.313
X113.03Y-95.377
X114.681Y-108.077
X115.189Y-62.459
X115.951Y-106.553
X117.729Y-99.949
X118.745Y-105.156
X119.507Y-107.442
X120.015Y-99.695
X120.142Y-130.048
X121.539Y-106.934
X125.654Y-65.278
X126.365Y-106.807
X127.203Y-69.291
X127.889Y-96.647
X129.54Y-118.618
X129.667Y-69.469
X129.794Y-76.581
X129.794Y-90.551
X129.896Y-63.424
X130.048Y-105.918
X130.683Y-99.568
X131.064Y-90.17
X131.572Y-75.184
X131.572Y-118.745
X131.826Y-98.679
X131.953Y-87.63
X134.239Y-101.092
X134.341Y-67.335
X134.366Y-69.596
X134.442Y-63.576
X136.144Y-93.853
X136.144Y-100.457
X137.16Y-93.091
X137.414Y-73.279
X137.922Y-92.456
X138.938Y-105.791
X139.573Y-106.807
X140.233Y-118.288
X140.462Y-107.569
X141.351Y-108.331
X141.656Y-118.085
X142.545Y-118.897
X142.697Y-122.961
X143.002Y-77.216
X143.383Y-119.71
X143.51Y-81.788
X143.891Y-80.772
X143.891Y-123.317
X145.415Y-121.768
X145.542Y-87.376
X146.685Y-79.756
X146.685Y-124.587
X146.812Y-129.032
X148.082Y-87.376
X148.336Y-123.317
X148.971Y-83.439
X149.098Y-81.788
X150.622Y-87.376
X150.876Y-130.683
X151.155Y-109.855
X151.384Y-127.508
X151.638Y-129.794
X151.765Y-80.391
X151.892Y-85.979
X153.289Y-86.868
X154.305Y-80.899
X154.381Y-115.316
X154.635Y-114.046
X154.661Y-118.262
X154.813Y-86.868
X155.296Y-119.278
X155.702Y-101.625
X156.337Y-109.931
X156.464Y-76.962
X157.353Y-80.899
X157.632Y-68.224
X157.734Y-85.979
X158.09Y-69.342
X158.115Y-128.524
X158.267Y-120.472
X158.852Y-67.615
X159.131Y-117.932
X159.72Y-116.11
X159.766Y-123.927
X160.02Y-62.103
X160.02Y-118.364
X160.782Y-123.114
X160.934Y-118.923
X160.96Y-124.943
X161.874Y-117.373
X162.814Y-122.174
X163.195Y-107.975
X163.322Y-69.723
X163.83Y-117.983
X163.92Y-78.65
X164.338Y-64.973
X164.846Y-118.872
X164.973Y-101.219
X165.608Y-118.11
X165.862Y-116.967
X167.259Y-94.742
X168.529Y-97.663
X168.783Y-71.247
X168.783Y-87.63
X172.212Y-89.306
X174.117Y-88.519
X174.6Y-62.992
X175.768Y-101.219
X175.768Y-107.315
X176.657Y-87.376
X177.419Y-94.742
X180.848Y-101.219
X181.331Y-89.23
X181.966Y-90.119
X182.296Y-92.304
X182.499Y-94.615
X182.601Y-91.084
X183.388Y-77.089
X184.556Y-119.634
X184.861Y-108.661
X186.411Y-105.359
X186.538Y-108.509
X188.062Y-104.089
X189.128Y-106.324
X189.154Y-115.748
X189.408Y-99.416
X190.551Y-102.311
X193.015Y-112.192
X193.269Y-100.279
X194.513Y-99.67
X195.707Y-117.018
X196.367Y-107.874
X197.028Y-91.059
X197.409Y-102.946
X198.171Y-112.065
X198.349Y-99.441
X199.085Y-114.605
X199.669Y-99.238
X200.914Y-91.135
X201.143Y-99.543
X205.791Y-105.258
T2
X103.339Y-80.13
X103.339Y-82.67
X103.339Y-85.21
X109.486Y-73.729
X112.026Y-73.729
X114.566Y-73.729
X117.792Y-85.769
X122.364Y-79.266
X122.364Y-85.769
X171.826Y-118.937
X171.826Y-123.509
X172.385Y-104.484
X174.925Y-104.484
X177.465Y-104.484
X178.329Y-123.509
X183.866Y-110.631
X183.866Y-113.171
X183.866Y-115.711
T3
X121.5Y-93.13
X134.81Y-123.73
X147.46Y-107.41
X150.0Y-107.41
X152.54Y-107.41
X167.65Y-123.03
X169.79Y-61.91
X171.01Y-98.18
X203.302Y-102.006
X207.6Y-62.8
T2
X106.596Y-76.168G85X107.296Y-76.168
G05
X106.596Y-88.868G85X107.296Y-88.868
G05
X116.73Y-76.168G85X117.43Y-76.168
G05
X116.73Y-88.868G85X117.43Y-88.868
G05
X168.727Y-107.741G85X168.727Y-108.441
G05
X168.727Y-117.875G85X168.727Y-118.575
G05
X181.427Y-107.741G85X181.427Y-108.441
G05
X181.427Y-117.875G85X181.427Y-118.575
G05
T4
X117.642Y-79.566G85X117.642Y-82.166
G05
X178.029Y-118.787G85X175.429Y-118.787
G05
M30
