%TF.GenerationSoftware,KiCad,Pcbnew,10.0.5*%
%TF.CreationDate,2026-07-27T17:39:23+01:00*%
%TF.ProjectId,gk_oled_pcb,676b5f6f-6c65-4645-9f70-63622e6b6963,rev?*%
%TF.SameCoordinates,Original*%
%TF.FileFunction,Copper,L1,Top*%
%TF.FilePolarity,Positive*%
%FSLAX46Y46*%
G04 Gerber Fmt 4.6, Leading zero omitted, Abs format (unit mm)*
G04 Created by KiCad (PCBNEW 10.0.5) date 2026-07-27 17:39:23*
%MOMM*%
%LPD*%
G01*
G04 APERTURE LIST*
G04 Aperture macros list*
%AMRoundRect*
0 Rectangle with rounded corners*
0 $1 Rounding radius*
0 $2 $3 $4 $5 $6 $7 $8 $9 X,Y pos of 4 corners*
0 Add a 4 corners polygon primitive as box body*
4,1,4,$2,$3,$4,$5,$6,$7,$8,$9,$2,$3,0*
0 Add four circle primitives for the rounded corners*
1,1,$1+$1,$2,$3*
1,1,$1+$1,$4,$5*
1,1,$1+$1,$6,$7*
1,1,$1+$1,$8,$9*
0 Add four rect primitives between the rounded corners*
20,1,$1+$1,$2,$3,$4,$5,0*
20,1,$1+$1,$4,$5,$6,$7,0*
20,1,$1+$1,$6,$7,$8,$9,0*
20,1,$1+$1,$8,$9,$2,$3,0*%
G04 Aperture macros list end*
%TA.AperFunction,ComponentPad*%
%ADD10R,1.700000X1.700000*%
%TD*%
%TA.AperFunction,SMDPad,CuDef*%
%ADD11R,2.300000X3.100000*%
%TD*%
%TA.AperFunction,SMDPad,CuDef*%
%ADD12R,0.300000X1.100000*%
%TD*%
%TA.AperFunction,SMDPad,CuDef*%
%ADD13RoundRect,0.140000X0.140000X0.170000X-0.140000X0.170000X-0.140000X-0.170000X0.140000X-0.170000X0*%
%TD*%
%TA.AperFunction,SMDPad,CuDef*%
%ADD14RoundRect,0.200000X0.200000X0.275000X-0.200000X0.275000X-0.200000X-0.275000X0.200000X-0.275000X0*%
%TD*%
%TA.AperFunction,SMDPad,CuDef*%
%ADD15RoundRect,0.140000X-0.170000X0.140000X-0.170000X-0.140000X0.170000X-0.140000X0.170000X0.140000X0*%
%TD*%
%TA.AperFunction,SMDPad,CuDef*%
%ADD16RoundRect,0.140000X-0.140000X-0.170000X0.140000X-0.170000X0.140000X0.170000X-0.140000X0.170000X0*%
%TD*%
%TA.AperFunction,SMDPad,CuDef*%
%ADD17RoundRect,0.048000X0.112000X0.952000X-0.112000X0.952000X-0.112000X-0.952000X0.112000X-0.952000X0*%
%TD*%
%TA.AperFunction,SMDPad,CuDef*%
%ADD18RoundRect,0.140000X0.170000X-0.140000X0.170000X0.140000X-0.170000X0.140000X-0.170000X-0.140000X0*%
%TD*%
%TA.AperFunction,SMDPad,CuDef*%
%ADD19RoundRect,0.200000X-0.200000X-0.275000X0.200000X-0.275000X0.200000X0.275000X-0.200000X0.275000X0*%
%TD*%
%TA.AperFunction,SMDPad,CuDef*%
%ADD20RoundRect,0.135000X0.185000X-0.135000X0.185000X0.135000X-0.185000X0.135000X-0.185000X-0.135000X0*%
%TD*%
%TA.AperFunction,SMDPad,CuDef*%
%ADD21RoundRect,0.135000X0.135000X0.185000X-0.135000X0.185000X-0.135000X-0.185000X0.135000X-0.185000X0*%
%TD*%
%TA.AperFunction,SMDPad,CuDef*%
%ADD22RoundRect,0.048000X0.952000X-0.112000X0.952000X0.112000X-0.952000X0.112000X-0.952000X-0.112000X0*%
%TD*%
%TA.AperFunction,SMDPad,CuDef*%
%ADD23RoundRect,0.200000X-0.275000X0.200000X-0.275000X-0.200000X0.275000X-0.200000X0.275000X0.200000X0*%
%TD*%
%TA.AperFunction,SMDPad,CuDef*%
%ADD24RoundRect,0.100000X0.100000X-0.637500X0.100000X0.637500X-0.100000X0.637500X-0.100000X-0.637500X0*%
%TD*%
%TA.AperFunction,ViaPad*%
%ADD25C,0.450000*%
%TD*%
%TA.AperFunction,ViaPad*%
%ADD26C,0.800000*%
%TD*%
%TA.AperFunction,Conductor*%
%ADD27C,0.152400*%
%TD*%
%TA.AperFunction,Conductor*%
%ADD28C,0.304800*%
%TD*%
%TA.AperFunction,Conductor*%
%ADD29C,0.203200*%
%TD*%
G04 APERTURE END LIST*
D10*
%TO.P,J5,1,Pin_1_1*%
%TO.N,GND*%
X105290000Y-73370000D03*
%TD*%
D11*
%TO.P,J4,MP*%
%TO.N,N/C*%
X96170000Y-68890000D03*
X102010000Y-68890000D03*
D12*
%TO.P,J4,6,Pin_6_6*%
%TO.N,VCC*%
X97840000Y-70590000D03*
%TO.P,J4,5,Pin_5_5*%
%TO.N,VDDIO*%
X98340000Y-70590000D03*
%TO.P,J4,4,Pin_4_4*%
%TO.N,I2C1_SDA*%
X98840000Y-70590000D03*
%TO.P,J4,3,Pin_3_3*%
%TO.N,I2C1_SCL*%
X99340000Y-70590000D03*
%TO.P,J4,2,Pin_2_2*%
%TO.N,OLED_NRES*%
X99840000Y-70590000D03*
%TO.P,J4,1,Pin_1_1*%
%TO.N,GND*%
X100340000Y-70590000D03*
%TD*%
D13*
%TO.P,C20,1*%
%TO.N,Net-(JP4-C2P)*%
X116812000Y-72948800D03*
%TO.P,C20,2*%
%TO.N,Net-(JP4-C2N)*%
X115852000Y-72948800D03*
%TD*%
%TO.P,C6,1*%
%TO.N,Net-(JP1-VCOMH)*%
X141094400Y-100787200D03*
%TO.P,C6,2*%
%TO.N,GND*%
X140134400Y-100787200D03*
%TD*%
D14*
%TO.P,R4,1*%
%TO.N,VCC*%
X143319000Y-80772000D03*
%TO.P,R4,2*%
%TO.N,SDA2*%
X141669000Y-80772000D03*
%TD*%
D15*
%TO.P,C16,1*%
%TO.N,VCC*%
X118110000Y-67846000D03*
%TO.P,C16,2*%
%TO.N,GND*%
X118110000Y-68806000D03*
%TD*%
D16*
%TO.P,C24,1*%
%TO.N,VCC*%
X109603600Y-72948800D03*
%TO.P,C24,2*%
%TO.N,GND*%
X110563600Y-72948800D03*
%TD*%
D17*
%TO.P,JP2,1,C2P_1*%
%TO.N,Net-(JP2-C2P)*%
X139005600Y-75828800D03*
%TO.P,JP2,2,C2N_2*%
%TO.N,Net-(JP2-C2N)*%
X138385600Y-75828800D03*
%TO.P,JP2,3,C1P_3*%
%TO.N,Net-(JP2-C1P)*%
X137765600Y-75828800D03*
%TO.P,JP2,4,C1N_4*%
%TO.N,Net-(JP2-C1N)*%
X137145600Y-75828800D03*
%TO.P,JP2,5,VDD2_5*%
%TO.N,VCC*%
X136525600Y-75828800D03*
%TO.P,JP2,6,NC_6*%
%TO.N,unconnected-(JP2-NC-Pad6)*%
X135905600Y-75828800D03*
%TO.P,JP2,7,VSS_7*%
%TO.N,GND*%
X135285600Y-75828800D03*
%TO.P,JP2,8,VDD1_8*%
%TO.N,VCC*%
X134665600Y-75828800D03*
%TO.P,JP2,9,NRES_9*%
%TO.N,OLED_NRES*%
X134045600Y-75828800D03*
%TO.P,JP2,10,SCL_10*%
%TO.N,SCL2*%
X133425600Y-75828800D03*
%TO.P,JP2,11,SDA_11*%
%TO.N,SDA2*%
X132805600Y-75828800D03*
%TO.P,JP2,12,IREF_12*%
%TO.N,Net-(JP2-IREF)*%
X132185600Y-75828800D03*
%TO.P,JP2,13,VCOMH_13*%
%TO.N,Net-(JP2-VCOMH)*%
X131565600Y-75828800D03*
%TO.P,JP2,14,VPP_14*%
%TO.N,Net-(JP2-VPP)*%
X130945600Y-75828800D03*
%TD*%
D18*
%TO.P,C2,1*%
%TO.N,Net-(JP1-C1P)*%
X144298578Y-108582400D03*
%TO.P,C2,2*%
%TO.N,Net-(JP1-C1N)*%
X144298578Y-107622400D03*
%TD*%
D16*
%TO.P,C10,1*%
%TO.N,VCC*%
X133459432Y-72745600D03*
%TO.P,C10,2*%
%TO.N,GND*%
X134419432Y-72745600D03*
%TD*%
D19*
%TO.P,R7,1*%
%TO.N,VCC*%
X131051800Y-68173600D03*
%TO.P,R7,2*%
%TO.N,SCL3*%
X132701800Y-68173600D03*
%TD*%
D20*
%TO.P,R1,1*%
%TO.N,Net-(JP1-IREF)*%
X144322800Y-102160800D03*
%TO.P,R1,2*%
%TO.N,GND*%
X144322800Y-101140800D03*
%TD*%
D13*
%TO.P,C23,1*%
%TO.N,Net-(JP4-C1P)*%
X114729200Y-72948800D03*
%TO.P,C23,2*%
%TO.N,Net-(JP4-C1N)*%
X113769200Y-72948800D03*
%TD*%
D15*
%TO.P,C26,1*%
%TO.N,VDDIO*%
X96977200Y-72875200D03*
%TO.P,C26,2*%
%TO.N,GND*%
X96977200Y-73835200D03*
%TD*%
D13*
%TO.P,C22,1*%
%TO.N,VCC*%
X112646400Y-72948800D03*
%TO.P,C22,2*%
%TO.N,GND*%
X111686400Y-72948800D03*
%TD*%
D16*
%TO.P,C5,1*%
%TO.N,Net-(JP1-VPP)*%
X142217200Y-100787200D03*
%TO.P,C5,2*%
%TO.N,GND*%
X143177200Y-100787200D03*
%TD*%
D13*
%TO.P,C12,1*%
%TO.N,VCC*%
X136553032Y-72745600D03*
%TO.P,C12,2*%
%TO.N,GND*%
X135593032Y-72745600D03*
%TD*%
D15*
%TO.P,C25,1*%
%TO.N,VDDIO*%
X95758000Y-72824400D03*
%TO.P,C25,2*%
%TO.N,GND*%
X95758000Y-73784400D03*
%TD*%
%TO.P,C4,1*%
%TO.N,VCC*%
X144298578Y-105438000D03*
%TO.P,C4,2*%
%TO.N,GND*%
X144298578Y-106398000D03*
%TD*%
D13*
%TO.P,C8,1*%
%TO.N,Net-(JP2-C2P)*%
X140718632Y-72745600D03*
%TO.P,C8,2*%
%TO.N,Net-(JP2-C2N)*%
X139758632Y-72745600D03*
%TD*%
D15*
%TO.P,C14,1*%
%TO.N,Net-(JP3-C2P)*%
X129133600Y-66017200D03*
%TO.P,C14,2*%
%TO.N,Net-(JP3-C2N)*%
X129133600Y-66977200D03*
%TD*%
D14*
%TO.P,R3,1*%
%TO.N,VCC*%
X143382230Y-84683600D03*
%TO.P,R3,2*%
%TO.N,SCL1*%
X141732230Y-84683600D03*
%TD*%
D15*
%TO.P,C15,1*%
%TO.N,Net-(JP3-VCOMH)*%
X118110000Y-65661600D03*
%TO.P,C15,2*%
%TO.N,GND*%
X118110000Y-66621600D03*
%TD*%
D21*
%TO.P,R12,1*%
%TO.N,Net-(JP4-IREF)*%
X108510800Y-73101200D03*
%TO.P,R12,2*%
%TO.N,GND*%
X107490800Y-73101200D03*
%TD*%
D22*
%TO.P,JP1,1,C2P_1*%
%TO.N,Net-(JP1-C2P)*%
X142255600Y-110049600D03*
%TO.P,JP1,2,C2N_2*%
%TO.N,Net-(JP1-C2N)*%
X142255600Y-109429600D03*
%TO.P,JP1,3,C1P_3*%
%TO.N,Net-(JP1-C1P)*%
X142255600Y-108809600D03*
%TO.P,JP1,4,C1N_4*%
%TO.N,Net-(JP1-C1N)*%
X142255600Y-108189600D03*
%TO.P,JP1,5,VDD2_5*%
%TO.N,VCC*%
X142255600Y-107569600D03*
%TO.P,JP1,6,NC_6*%
%TO.N,unconnected-(JP1-NC-Pad6)*%
X142255600Y-106949600D03*
%TO.P,JP1,7,VSS_7*%
%TO.N,GND*%
X142255600Y-106329600D03*
%TO.P,JP1,8,VDD1_8*%
%TO.N,VCC*%
X142255600Y-105709600D03*
%TO.P,JP1,9,NRES_9*%
%TO.N,OLED_NRES*%
X142255600Y-105089600D03*
%TO.P,JP1,10,SCL_10*%
%TO.N,SCL1*%
X142255600Y-104469600D03*
%TO.P,JP1,11,SDA_11*%
%TO.N,SDA1*%
X142255600Y-103849600D03*
%TO.P,JP1,12,IREF_12*%
%TO.N,Net-(JP1-IREF)*%
X142255600Y-103229600D03*
%TO.P,JP1,13,VCOMH_13*%
%TO.N,Net-(JP1-VCOMH)*%
X142255600Y-102609600D03*
%TO.P,JP1,14,VPP_14*%
%TO.N,Net-(JP1-VPP)*%
X142255600Y-101989600D03*
%TD*%
D15*
%TO.P,C13,1*%
%TO.N,Net-(JP3-VPP)*%
X118110000Y-63578800D03*
%TO.P,C13,2*%
%TO.N,GND*%
X118110000Y-64538800D03*
%TD*%
%TO.P,C19,1*%
%TO.N,Net-(JP4-VPP)*%
X106578400Y-75720000D03*
%TO.P,C19,2*%
%TO.N,GND*%
X106578400Y-76680000D03*
%TD*%
D17*
%TO.P,JP3,1,C2P_1*%
%TO.N,Net-(JP3-C2P)*%
X127524800Y-64398800D03*
%TO.P,JP3,2,C2N_2*%
%TO.N,Net-(JP3-C2N)*%
X126904800Y-64398800D03*
%TO.P,JP3,3,C1P_3*%
%TO.N,Net-(JP3-C1P)*%
X126284800Y-64398800D03*
%TO.P,JP3,4,C1N_4*%
%TO.N,Net-(JP3-C1N)*%
X125664800Y-64398800D03*
%TO.P,JP3,5,VDD2_5*%
%TO.N,VCC*%
X125044800Y-64398800D03*
%TO.P,JP3,6,NC_6*%
%TO.N,unconnected-(JP3-NC-Pad6)*%
X124424800Y-64398800D03*
%TO.P,JP3,7,VSS_7*%
%TO.N,GND*%
X123804800Y-64398800D03*
%TO.P,JP3,8,VDD1_8*%
%TO.N,VCC*%
X123184800Y-64398800D03*
%TO.P,JP3,9,NRES_9*%
%TO.N,OLED_NRES*%
X122564800Y-64398800D03*
%TO.P,JP3,10,SCL_10*%
%TO.N,SCL3*%
X121944800Y-64398800D03*
%TO.P,JP3,11,SDA_11*%
%TO.N,SDA3*%
X121324800Y-64398800D03*
%TO.P,JP3,12,IREF_12*%
%TO.N,Net-(JP3-IREF)*%
X120704800Y-64398800D03*
%TO.P,JP3,13,VCOMH_13*%
%TO.N,Net-(JP3-VCOMH)*%
X120084800Y-64398800D03*
%TO.P,JP3,14,VPP_14*%
%TO.N,Net-(JP3-VPP)*%
X119464800Y-64398800D03*
%TD*%
D16*
%TO.P,C3,1*%
%TO.N,VCC*%
X141360000Y-111700000D03*
%TO.P,C3,2*%
%TO.N,GND*%
X142320000Y-111700000D03*
%TD*%
D19*
%TO.P,R6,1*%
%TO.N,VCC*%
X131051800Y-69951600D03*
%TO.P,R6,2*%
%TO.N,SDA3*%
X132701800Y-69951600D03*
%TD*%
D18*
%TO.P,C7,1*%
%TO.N,Net-(JP2-VPP)*%
X128460000Y-73920000D03*
%TO.P,C7,2*%
%TO.N,GND*%
X128460000Y-72960000D03*
%TD*%
D21*
%TO.P,R10,1*%
%TO.N,Net-(JP2-IREF)*%
X131807832Y-72898000D03*
%TO.P,R10,2*%
%TO.N,GND*%
X130787832Y-72898000D03*
%TD*%
D14*
%TO.P,R5,1*%
%TO.N,VCC*%
X143319000Y-78841600D03*
%TO.P,R5,2*%
%TO.N,SCL2*%
X141669000Y-78841600D03*
%TD*%
D23*
%TO.P,R9,1*%
%TO.N,VCC*%
X114604800Y-68161400D03*
%TO.P,R9,2*%
%TO.N,SCL4*%
X114604800Y-69811400D03*
%TD*%
D18*
%TO.P,C21,1*%
%TO.N,Net-(JP4-VCOMH)*%
X106578400Y-78712000D03*
%TO.P,C21,2*%
%TO.N,GND*%
X106578400Y-77752000D03*
%TD*%
D15*
%TO.P,C18,1*%
%TO.N,VCC*%
X129133600Y-70182800D03*
%TO.P,C18,2*%
%TO.N,GND*%
X129133600Y-71142800D03*
%TD*%
D17*
%TO.P,JP4,1,C2P_1*%
%TO.N,Net-(JP4-C2P)*%
X116094800Y-75828800D03*
%TO.P,JP4,2,C2N_2*%
%TO.N,Net-(JP4-C2N)*%
X115474800Y-75828800D03*
%TO.P,JP4,3,C1P_3*%
%TO.N,Net-(JP4-C1P)*%
X114854800Y-75828800D03*
%TO.P,JP4,4,C1N_4*%
%TO.N,Net-(JP4-C1N)*%
X114234800Y-75828800D03*
%TO.P,JP4,5,VDD2_5*%
%TO.N,VCC*%
X113614800Y-75828800D03*
%TO.P,JP4,6,NC_6*%
%TO.N,unconnected-(JP4-NC-Pad6)*%
X112994800Y-75828800D03*
%TO.P,JP4,7,VSS_7*%
%TO.N,GND*%
X112374800Y-75828800D03*
%TO.P,JP4,8,VDD1_8*%
%TO.N,VCC*%
X111754800Y-75828800D03*
%TO.P,JP4,9,NRES_9*%
%TO.N,OLED_NRES*%
X111134800Y-75828800D03*
%TO.P,JP4,10,SCL_10*%
%TO.N,SCL4*%
X110514800Y-75828800D03*
%TO.P,JP4,11,SDA_11*%
%TO.N,SDA4*%
X109894800Y-75828800D03*
%TO.P,JP4,12,IREF_12*%
%TO.N,Net-(JP4-IREF)*%
X109274800Y-75828800D03*
%TO.P,JP4,13,VCOMH_13*%
%TO.N,Net-(JP4-VCOMH)*%
X108654800Y-75828800D03*
%TO.P,JP4,14,VPP_14*%
%TO.N,Net-(JP4-VPP)*%
X108034800Y-75828800D03*
%TD*%
D18*
%TO.P,C9,1*%
%TO.N,Net-(JP2-VCOMH)*%
X127130000Y-74550000D03*
%TO.P,C9,2*%
%TO.N,GND*%
X127130000Y-73590000D03*
%TD*%
D15*
%TO.P,C17,1*%
%TO.N,Net-(JP3-C1P)*%
X129133600Y-68100000D03*
%TO.P,C17,2*%
%TO.N,Net-(JP3-C1N)*%
X129133600Y-69060000D03*
%TD*%
D23*
%TO.P,R13,1*%
%TO.N,OLED_NRES*%
X95656400Y-76899000D03*
%TO.P,R13,2*%
%TO.N,GND*%
X95656400Y-78549000D03*
%TD*%
D24*
%TO.P,U1,1,A0_1*%
%TO.N,GND*%
X98410600Y-78757700D03*
%TO.P,U1,2,A1_2*%
X99060600Y-78757700D03*
%TO.P,U1,3,~{RESET}_3*%
%TO.N,OLED_NRES*%
X99710600Y-78757700D03*
%TO.P,U1,4,SD0_4*%
%TO.N,SDA1*%
X100360600Y-78757700D03*
%TO.P,U1,5,SC0_5*%
%TO.N,SCL1*%
X101010600Y-78757700D03*
%TO.P,U1,6,SD1_6*%
%TO.N,SDA2*%
X101660600Y-78757700D03*
%TO.P,U1,7,SC1_7*%
%TO.N,SCL2*%
X102310600Y-78757700D03*
%TO.P,U1,8,GND_8*%
%TO.N,GND*%
X102960600Y-78757700D03*
%TO.P,U1,9,SD2_9*%
%TO.N,SDA3*%
X102960600Y-73032700D03*
%TO.P,U1,10,SC2_10*%
%TO.N,SCL3*%
X102310600Y-73032700D03*
%TO.P,U1,11,SD3_11*%
%TO.N,SDA4*%
X101660600Y-73032700D03*
%TO.P,U1,12,SC3_12*%
%TO.N,SCL4*%
X101010600Y-73032700D03*
%TO.P,U1,13,A2_13*%
%TO.N,GND*%
X100360600Y-73032700D03*
%TO.P,U1,14,SCL_14*%
%TO.N,I2C1_SCL*%
X99710600Y-73032700D03*
%TO.P,U1,15,SDA_15*%
%TO.N,I2C1_SDA*%
X99060600Y-73032700D03*
%TO.P,U1,16,VCC_16*%
%TO.N,VDDIO*%
X98410600Y-73032700D03*
%TD*%
D14*
%TO.P,R2,1*%
%TO.N,VCC*%
X143382230Y-86614000D03*
%TO.P,R2,2*%
%TO.N,SDA1*%
X141732230Y-86614000D03*
%TD*%
D20*
%TO.P,R11,1*%
%TO.N,Net-(JP3-IREF)*%
X117043200Y-67362800D03*
%TO.P,R11,2*%
%TO.N,GND*%
X117043200Y-66342800D03*
%TD*%
D13*
%TO.P,C11,1*%
%TO.N,Net-(JP2-C1P)*%
X138635832Y-72745600D03*
%TO.P,C11,2*%
%TO.N,Net-(JP2-C1N)*%
X137675832Y-72745600D03*
%TD*%
D23*
%TO.P,R8,1*%
%TO.N,VCC*%
X112674400Y-68161400D03*
%TO.P,R8,2*%
%TO.N,SDA4*%
X112674400Y-69811400D03*
%TD*%
D18*
%TO.P,C1,1*%
%TO.N,Net-(JP1-C2P)*%
X144298578Y-110766800D03*
%TO.P,C1,2*%
%TO.N,Net-(JP1-C2N)*%
X144298578Y-109806800D03*
%TD*%
D10*
%TO.P,J3,1,Pin_1_1*%
%TO.N,GND*%
X138750000Y-113480000D03*
%TD*%
%TO.P,J2,1,Pin_1_1*%
%TO.N,GND*%
X143116030Y-74218800D03*
%TD*%
D25*
%TO.N,OLED_NRES*%
X99517200Y-69240400D03*
D26*
%TO.N,GND*%
X101447600Y-71221600D03*
%TO.N,VCC*%
X96824800Y-71323200D03*
%TO.N,GND*%
X105206800Y-75996800D03*
X140309600Y-106375200D03*
X97180400Y-78790800D03*
X124256800Y-66446400D03*
X144272000Y-100025200D03*
X96977200Y-74930000D03*
X119278400Y-68783200D03*
X95758000Y-74930000D03*
X116992400Y-65379600D03*
X138684000Y-101803200D03*
X104140000Y-78790800D03*
X143390000Y-112140000D03*
X111099600Y-71983600D03*
X100330000Y-74676000D03*
X129743200Y-72847200D03*
X134823200Y-71628000D03*
D25*
%TO.N,VCC*%
X130149600Y-68935600D03*
D26*
X127812800Y-70182800D03*
X109575600Y-71932800D03*
D25*
X143357600Y-77368400D03*
D26*
X112623600Y-71882000D03*
X141580000Y-112800000D03*
X144322800Y-104394000D03*
D25*
X115925600Y-68580000D03*
D26*
X133451600Y-71577200D03*
X120650000Y-68681600D03*
X136499600Y-71424800D03*
D25*
X143408400Y-83108800D03*
%TO.N,SDA2*%
X139903200Y-80772000D03*
X101650800Y-77470000D03*
%TO.N,OLED_NRES*%
X111201200Y-77673200D03*
X122428000Y-67157600D03*
X140462000Y-77724000D03*
X140665200Y-105257600D03*
X98950000Y-76650000D03*
%TO.N,SCL2*%
X139903200Y-78841600D03*
X102260400Y-77012800D03*
%TO.N,SCL3*%
X133858000Y-68224400D03*
X121970800Y-65989200D03*
X102362000Y-71069200D03*
%TO.N,SCL1*%
X101100000Y-76900000D03*
X140462000Y-84632800D03*
X140106400Y-104749600D03*
%TO.N,SDA1*%
X100170000Y-76970000D03*
X139598400Y-104190800D03*
X140614400Y-86715600D03*
%TO.N,SDA3*%
X121259600Y-66395600D03*
X103022400Y-71475600D03*
X134010400Y-69900800D03*
%TO.N,SCL4*%
X101346000Y-74828400D03*
X114655600Y-71882000D03*
X110439200Y-77673200D03*
%TO.N,SDA4*%
X102006400Y-74472800D03*
X113842800Y-71932800D03*
X109719164Y-77273600D03*
%TD*%
%TO.N,OLED_NRES*%
D27*
X99840000Y-69563200D02*
X99517200Y-69240400D01*
X99840000Y-70590000D02*
X99840000Y-69563200D01*
%TO.N,GND*%
D28*
X101041200Y-71628000D02*
X101447600Y-71221600D01*
X100360600Y-71628000D02*
X101041200Y-71628000D01*
X100360600Y-71628000D02*
X100360600Y-70608200D01*
X100360600Y-70608200D02*
X100342400Y-70590000D01*
X100360600Y-73032700D02*
X100360600Y-71628000D01*
%TO.N,I2C1_SCL*%
D29*
X99340000Y-71450800D02*
X99710600Y-71821400D01*
X99710600Y-71821400D02*
X99710600Y-73032700D01*
X99340000Y-70590000D02*
X99340000Y-71450800D01*
%TO.N,I2C1_SDA*%
X99060600Y-71781000D02*
X99060600Y-73032700D01*
X98840000Y-71560400D02*
X99060600Y-71781000D01*
X98840000Y-70590000D02*
X98840000Y-71560400D01*
%TO.N,VDDIO*%
X98340000Y-72962100D02*
X98410600Y-73032700D01*
X98340000Y-70590000D02*
X98340000Y-72962100D01*
%TO.N,VCC*%
X96875600Y-71272400D02*
X96824800Y-71323200D01*
X97586800Y-71272400D02*
X96875600Y-71272400D01*
X97840000Y-70590000D02*
X97840000Y-71019200D01*
X97840000Y-71019200D02*
X97586800Y-71272400D01*
%TO.N,GND*%
D28*
X106578400Y-77752000D02*
X106578400Y-76680000D01*
X105890000Y-76680000D02*
X105206800Y-75996800D01*
X106578400Y-76680000D02*
X105890000Y-76680000D01*
%TO.N,Net-(JP4-VCOMH)*%
D29*
X107317600Y-78712000D02*
X106578400Y-78712000D01*
X108654800Y-77374800D02*
X107317600Y-78712000D01*
X108654800Y-75828800D02*
X108654800Y-77374800D01*
%TO.N,Net-(JP4-VPP)*%
X107261600Y-75720000D02*
X106578400Y-75720000D01*
X107847200Y-75641200D02*
X107340400Y-75641200D01*
X107340400Y-75641200D02*
X107261600Y-75720000D01*
X108034800Y-75828800D02*
X107847200Y-75641200D01*
%TO.N,GND*%
X105558800Y-73101200D02*
X105290000Y-73370000D01*
X107490800Y-73101200D02*
X105558800Y-73101200D01*
%TO.N,Net-(JP4-C2P)*%
X116812000Y-73942000D02*
X116812000Y-72948800D01*
X116094800Y-75828800D02*
X116094800Y-74659200D01*
X116094800Y-74659200D02*
X116812000Y-73942000D01*
%TO.N,Net-(JP4-C2N)*%
X115474800Y-74161600D02*
X115852000Y-73784400D01*
X115852000Y-73784400D02*
X115852000Y-72948800D01*
X115474800Y-75828800D02*
X115474800Y-74161600D01*
%TO.N,Net-(JP1-VCOMH)*%
X142255600Y-102609600D02*
X140963600Y-102609600D01*
X140963600Y-102609600D02*
X140716000Y-102362000D01*
X140716000Y-101701600D02*
X141094400Y-101323200D01*
X140716000Y-102362000D02*
X140716000Y-101701600D01*
X141094400Y-101323200D02*
X141094400Y-100787200D01*
%TO.N,GND*%
D28*
X129794000Y-72898000D02*
X129743200Y-72847200D01*
X117322000Y-66621600D02*
X117043200Y-66342800D01*
X117833200Y-64538800D02*
X116992400Y-65379600D01*
D27*
X95656400Y-78549000D02*
X96938600Y-78549000D01*
D28*
X98410600Y-78757700D02*
X97213500Y-78757700D01*
X111201200Y-72948800D02*
X111201200Y-72085200D01*
X135285600Y-75828800D02*
X135285600Y-74071600D01*
X119255600Y-68806000D02*
X119278400Y-68783200D01*
X134419432Y-73205432D02*
X134419432Y-72745600D01*
X142255600Y-106329600D02*
X144230178Y-106329600D01*
X134419432Y-72031768D02*
X134823200Y-71628000D01*
X117043200Y-65430400D02*
X116992400Y-65379600D01*
X130787832Y-72898000D02*
X129794000Y-72898000D01*
D29*
X139700000Y-100787200D02*
X138684000Y-101803200D01*
D28*
X135593032Y-72745600D02*
X135593032Y-72397832D01*
D29*
X127130000Y-73530000D02*
X127700000Y-72960000D01*
D28*
X135285600Y-74061200D02*
X135593032Y-73753768D01*
D29*
X127130000Y-73590000D02*
X127130000Y-73530000D01*
D28*
X144230178Y-106329600D02*
X144298578Y-106398000D01*
X118110000Y-66621600D02*
X117322000Y-66621600D01*
X140355200Y-106329600D02*
X140309600Y-106375200D01*
D29*
X127700000Y-72960000D02*
X128460000Y-72960000D01*
D28*
X111201200Y-72085200D02*
X111099600Y-71983600D01*
D29*
X128460000Y-72960000D02*
X129630400Y-72960000D01*
D28*
X111686400Y-73383200D02*
X112374800Y-74071600D01*
X100360600Y-73032700D02*
X100360600Y-74645400D01*
X135593032Y-72397832D02*
X134823200Y-71628000D01*
X96977200Y-73835200D02*
X96977200Y-74930000D01*
X110563600Y-72948800D02*
X111201200Y-72948800D01*
X112374800Y-74071600D02*
X112374800Y-75828800D01*
X129692400Y-72898000D02*
X129743200Y-72847200D01*
X142320000Y-111700000D02*
X142950000Y-111700000D01*
X135285600Y-74071600D02*
X135285600Y-74061200D01*
X123804800Y-65994400D02*
X124256800Y-66446400D01*
D29*
X144322800Y-100076000D02*
X144272000Y-100025200D01*
D28*
X142950000Y-111700000D02*
X143390000Y-112140000D01*
X118110000Y-68806000D02*
X119255600Y-68806000D01*
X97213500Y-78757700D02*
X97180400Y-78790800D01*
D29*
X140134400Y-100787200D02*
X139700000Y-100787200D01*
X129630400Y-72960000D02*
X129743200Y-72847200D01*
D28*
X123804800Y-64398800D02*
X123804800Y-65994400D01*
X99060600Y-78757700D02*
X98410600Y-78757700D01*
X134419432Y-72745600D02*
X134419432Y-72031768D01*
X118110000Y-64538800D02*
X117833200Y-64538800D01*
X102960600Y-78757700D02*
X104106900Y-78757700D01*
X111201200Y-72948800D02*
X111686400Y-72948800D01*
X100360600Y-74645400D02*
X100330000Y-74676000D01*
D29*
X143177200Y-100787200D02*
X143510000Y-100787200D01*
D28*
X142255600Y-106329600D02*
X140355200Y-106329600D01*
D29*
X144322800Y-101140800D02*
X144322800Y-100076000D01*
D28*
X111686400Y-72948800D02*
X111686400Y-73383200D01*
X135285600Y-74071600D02*
X134419432Y-73205432D01*
X104106900Y-78757700D02*
X104140000Y-78790800D01*
D27*
X96938600Y-78549000D02*
X97180400Y-78790800D01*
D28*
X95758000Y-73784400D02*
X95758000Y-74930000D01*
D29*
X143510000Y-100787200D02*
X144272000Y-100025200D01*
D28*
X129133600Y-71142800D02*
X129133600Y-72237600D01*
X117043200Y-66342800D02*
X117043200Y-65430400D01*
X129133600Y-72237600D02*
X129743200Y-72847200D01*
X135593032Y-73753768D02*
X135593032Y-72745600D01*
%TO.N,VCC*%
X123184800Y-67366000D02*
X122704800Y-67846000D01*
X111754800Y-75828800D02*
X111754800Y-74518400D01*
X109603600Y-72948800D02*
X109603600Y-71960800D01*
X140337600Y-110677600D02*
X141360000Y-111700000D01*
X140337600Y-107972800D02*
X140337600Y-110280000D01*
D27*
X114604800Y-68161400D02*
X115507000Y-68161400D01*
D28*
X134665600Y-74518400D02*
X133459432Y-73312232D01*
X111754800Y-74518400D02*
X111556800Y-74320400D01*
X136553032Y-72745600D02*
X136553032Y-71478232D01*
X112979200Y-73914000D02*
X112979200Y-73761600D01*
X126062800Y-70182800D02*
X127812800Y-70182800D01*
D27*
X131051800Y-69951600D02*
X131051800Y-68173600D01*
X143319000Y-78841600D02*
X143319000Y-77407000D01*
D28*
X141360000Y-112580000D02*
X141580000Y-112800000D01*
X142255600Y-105709600D02*
X143413600Y-105709600D01*
X112646400Y-72948800D02*
X112646400Y-71904800D01*
D27*
X143382230Y-86614000D02*
X143382230Y-84683600D01*
X143382230Y-84683600D02*
X143382230Y-83134970D01*
D28*
X136553032Y-71478232D02*
X136499600Y-71424800D01*
X113614800Y-75828800D02*
X113614800Y-74549600D01*
X144298578Y-104418222D02*
X144322800Y-104394000D01*
X134665600Y-75828800D02*
X134665600Y-74518400D01*
D27*
X143319000Y-77407000D02*
X143357600Y-77368400D01*
D28*
X122704800Y-67846000D02*
X120142000Y-67846000D01*
D27*
X131051800Y-69837800D02*
X130149600Y-68935600D01*
D28*
X125044800Y-64398800D02*
X125044800Y-69164800D01*
X125044800Y-69164800D02*
X126062800Y-70182800D01*
X112646400Y-73428800D02*
X112646400Y-72948800D01*
X133459432Y-73312232D02*
X133459432Y-72745600D01*
X123184800Y-64398800D02*
X123184800Y-67366000D01*
D27*
X115507000Y-68161400D02*
X115925600Y-68580000D01*
D28*
X142255600Y-107569600D02*
X140740800Y-107569600D01*
D27*
X114604800Y-68161400D02*
X112674400Y-68161400D01*
D28*
X120142000Y-67846000D02*
X118110000Y-67846000D01*
X111556800Y-74320400D02*
X110032800Y-74320400D01*
X113614800Y-74549600D02*
X112979200Y-73914000D01*
X140740800Y-107569600D02*
X140337600Y-107972800D01*
X144298578Y-105438000D02*
X144298578Y-104418222D01*
X141360000Y-111700000D02*
X141360000Y-112580000D01*
X109603600Y-71960800D02*
X109575600Y-71932800D01*
X143413600Y-105709600D02*
X143685200Y-105438000D01*
X127812800Y-70182800D02*
X129133600Y-70182800D01*
X110032800Y-74320400D02*
X109603600Y-73891200D01*
X140337600Y-110280000D02*
X140337600Y-110677600D01*
X136525600Y-72773032D02*
X136553032Y-72745600D01*
X136525600Y-75828800D02*
X136525600Y-72773032D01*
D27*
X143382230Y-83134970D02*
X143408400Y-83108800D01*
D28*
X109603600Y-73891200D02*
X109603600Y-72948800D01*
D27*
X131051800Y-69951600D02*
X131051800Y-69837800D01*
D28*
X133459432Y-71585032D02*
X133451600Y-71577200D01*
X112979200Y-73761600D02*
X112646400Y-73428800D01*
D27*
X143319000Y-80772000D02*
X143319000Y-78841600D01*
D28*
X133459432Y-72745600D02*
X133459432Y-71585032D01*
X112646400Y-71904800D02*
X112623600Y-71882000D01*
X143685200Y-105438000D02*
X144298578Y-105438000D01*
X120142000Y-68173600D02*
X120650000Y-68681600D01*
X120142000Y-67846000D02*
X120142000Y-68173600D01*
%TO.N,SDA2*%
D27*
X101650800Y-77470000D02*
X101650800Y-78747900D01*
X132805600Y-77992400D02*
X135585200Y-80772000D01*
X135585200Y-80772000D02*
X139903200Y-80772000D01*
X139903200Y-80772000D02*
X141669000Y-80772000D01*
X132805600Y-75828800D02*
X132805600Y-77992400D01*
X101650800Y-78747900D02*
X101660600Y-78757700D01*
%TO.N,Net-(JP2-C2P)*%
D29*
X139005600Y-75828800D02*
X139005600Y-74659200D01*
X139005600Y-74659200D02*
X139242800Y-74422000D01*
X139242800Y-74422000D02*
X140157200Y-74422000D01*
X140718632Y-73860568D02*
X140718632Y-72745600D01*
X140157200Y-74422000D02*
X140718632Y-73860568D01*
%TO.N,Net-(JP2-C2N)*%
X138385600Y-74314000D02*
X138887200Y-73812400D01*
X138385600Y-75828800D02*
X138385600Y-74314000D01*
X138887200Y-73812400D02*
X139395200Y-73812400D01*
X139395200Y-73812400D02*
X139758632Y-73448968D01*
X139758632Y-73448968D02*
X139758632Y-72745600D01*
%TO.N,Net-(JP2-C1P)*%
X138635832Y-73250968D02*
X138635832Y-72745600D01*
X137765600Y-74121200D02*
X138635832Y-73250968D01*
X137765600Y-75828800D02*
X137765600Y-74121200D01*
%TO.N,Net-(JP2-C1N)*%
X137145600Y-73776000D02*
X137675832Y-73245768D01*
X137145600Y-75828800D02*
X137145600Y-73776000D01*
X137675832Y-73245768D02*
X137675832Y-72745600D01*
%TO.N,OLED_NRES*%
D27*
X99771200Y-77471200D02*
X99771200Y-78697100D01*
X134045600Y-76828800D02*
X135448800Y-78232000D01*
X98950000Y-76650000D02*
X98701000Y-76899000D01*
X98701000Y-76899000D02*
X95656400Y-76899000D01*
X142255600Y-105089600D02*
X140833200Y-105089600D01*
X98950000Y-76650000D02*
X99771200Y-77471200D01*
X135448800Y-78232000D02*
X139954000Y-78232000D01*
X99771200Y-78697100D02*
X99710600Y-78757700D01*
X111134800Y-75828800D02*
X111134800Y-77606800D01*
X134045600Y-75828800D02*
X134045600Y-76828800D01*
X111134800Y-77606800D02*
X111201200Y-77673200D01*
X122564800Y-64398800D02*
X122564800Y-67020800D01*
X122564800Y-67020800D02*
X122428000Y-67157600D01*
X140833200Y-105089600D02*
X140665200Y-105257600D01*
X139954000Y-78232000D02*
X140462000Y-77724000D01*
%TO.N,SCL2*%
X102310600Y-77063000D02*
X102310600Y-78757700D01*
X133425600Y-77139200D02*
X135128000Y-78841600D01*
X139903200Y-78841600D02*
X141669000Y-78841600D01*
X133425600Y-75828800D02*
X133425600Y-77139200D01*
X135128000Y-78841600D02*
X139903200Y-78841600D01*
X102260400Y-77012800D02*
X102310600Y-77063000D01*
%TO.N,Net-(JP2-IREF)*%
D29*
X132185600Y-75828800D02*
X132185600Y-73275768D01*
X132185600Y-73275768D02*
X131807832Y-72898000D01*
%TO.N,Net-(JP2-VCOMH)*%
X127130000Y-74590000D02*
X127130000Y-74550000D01*
X130844400Y-77594400D02*
X130170000Y-76920000D01*
X130920000Y-77594400D02*
X130844400Y-77594400D01*
X127870000Y-75330000D02*
X127130000Y-74590000D01*
X130170000Y-76920000D02*
X130170000Y-76090000D01*
X131565600Y-77222400D02*
X131193600Y-77594400D01*
X131565600Y-75828800D02*
X131565600Y-77222400D01*
X131193600Y-77594400D02*
X130920000Y-77594400D01*
X130170000Y-76090000D02*
X129410000Y-75330000D01*
X129410000Y-75330000D02*
X127870000Y-75330000D01*
%TO.N,Net-(JP2-VPP)*%
X130945600Y-74545600D02*
X130320000Y-73920000D01*
X130945600Y-75828800D02*
X130945600Y-74545600D01*
X130320000Y-73920000D02*
X128460000Y-73920000D01*
%TO.N,Net-(JP1-C1P)*%
X143662400Y-108813600D02*
X143893600Y-108582400D01*
X143658400Y-108809600D02*
X143662400Y-108813600D01*
X142255600Y-108809600D02*
X143658400Y-108809600D01*
X143893600Y-108582400D02*
X144298578Y-108582400D01*
%TO.N,Net-(JP1-C1N)*%
X144142400Y-107622400D02*
X144298578Y-107622400D01*
X142255600Y-108189600D02*
X143575200Y-108189600D01*
X143575200Y-108189600D02*
X144142400Y-107622400D01*
%TO.N,SCL3*%
D27*
X132752600Y-68224400D02*
X132701800Y-68173600D01*
X121944800Y-64398800D02*
X121944800Y-65963200D01*
X102310600Y-71120600D02*
X102310600Y-73032700D01*
X133858000Y-68224400D02*
X132752600Y-68224400D01*
X102362000Y-71069200D02*
X102310600Y-71120600D01*
X121944800Y-65963200D02*
X121970800Y-65989200D01*
%TO.N,Net-(JP1-IREF)*%
D29*
X144322800Y-102819200D02*
X144322800Y-102160800D01*
X143912400Y-103229600D02*
X144322800Y-102819200D01*
X142255600Y-103229600D02*
X143912400Y-103229600D01*
%TO.N,Net-(JP4-C1P)*%
X114854800Y-73074400D02*
X114729200Y-72948800D01*
X114854800Y-75828800D02*
X114854800Y-73074400D01*
%TO.N,Net-(JP4-C1N)*%
X113769200Y-73840400D02*
X113769200Y-72948800D01*
X114234800Y-74306000D02*
X113769200Y-73840400D01*
X114234800Y-75828800D02*
X114234800Y-74306000D01*
%TO.N,VDDIO*%
D28*
X98410600Y-73032700D02*
X97134700Y-73032700D01*
X96977200Y-72875200D02*
X95808800Y-72875200D01*
X95808800Y-72875200D02*
X95758000Y-72824400D01*
X97134700Y-73032700D02*
X96977200Y-72875200D01*
%TO.N,Net-(JP1-VPP)*%
D29*
X142255600Y-100825600D02*
X142217200Y-100787200D01*
X142255600Y-101989600D02*
X142255600Y-100825600D01*
%TO.N,Net-(JP3-C2P)*%
X127840800Y-66017200D02*
X129133600Y-66017200D01*
X127524800Y-65701200D02*
X127840800Y-66017200D01*
X127524800Y-64398800D02*
X127524800Y-65701200D01*
%TO.N,Net-(JP3-C2N)*%
X126904800Y-66046400D02*
X126904800Y-64398800D01*
X129133600Y-66977200D02*
X127835600Y-66977200D01*
X127835600Y-66977200D02*
X126904800Y-66046400D01*
%TO.N,SCL1*%
D27*
X141681430Y-84632800D02*
X141732230Y-84683600D01*
X140386400Y-104469600D02*
X140106400Y-104749600D01*
X142255600Y-104469600D02*
X140386400Y-104469600D01*
X101010600Y-78757700D02*
X101010600Y-76989400D01*
X101010600Y-76989400D02*
X101100000Y-76900000D01*
X140462000Y-84632800D02*
X141681430Y-84632800D01*
%TO.N,Net-(JP3-VCOMH)*%
D29*
X118110000Y-65661600D02*
X118696800Y-65661600D01*
X120084800Y-65690800D02*
X120084800Y-64398800D01*
X119837200Y-65938400D02*
X120084800Y-65690800D01*
X118696800Y-65661600D02*
X118973600Y-65938400D01*
X118973600Y-65938400D02*
X119837200Y-65938400D01*
%TO.N,Net-(JP4-IREF)*%
X109274800Y-74476800D02*
X108510800Y-73712800D01*
X108510800Y-73712800D02*
X108510800Y-73101200D01*
X109274800Y-75828800D02*
X109274800Y-74476800D01*
%TO.N,Net-(JP1-C2P)*%
X143713200Y-110642400D02*
X144174178Y-110642400D01*
X144174178Y-110642400D02*
X144298578Y-110766800D01*
X143611600Y-110388400D02*
X143611600Y-110540800D01*
X142255600Y-110049600D02*
X143272800Y-110049600D01*
X143611600Y-110540800D02*
X143713200Y-110642400D01*
X143272800Y-110049600D02*
X143611600Y-110388400D01*
%TO.N,Net-(JP1-C2N)*%
X143792000Y-109806800D02*
X144298578Y-109806800D01*
X143414800Y-109429600D02*
X143792000Y-109806800D01*
X142255600Y-109429600D02*
X143414800Y-109429600D01*
%TO.N,SDA1*%
D27*
X100360600Y-77160600D02*
X100170000Y-76970000D01*
X141630630Y-86715600D02*
X141732230Y-86614000D01*
X100360600Y-78757700D02*
X100360600Y-77160600D01*
X142255600Y-103849600D02*
X139939600Y-103849600D01*
X139939600Y-103849600D02*
X139598400Y-104190800D01*
X140614400Y-86715600D02*
X141630630Y-86715600D01*
%TO.N,Net-(JP3-VPP)*%
D29*
X119464800Y-64398800D02*
X118769200Y-63703200D01*
X118618000Y-63703200D02*
X118493600Y-63578800D01*
X118493600Y-63578800D02*
X118110000Y-63578800D01*
X118769200Y-63703200D02*
X118618000Y-63703200D01*
%TO.N,Net-(JP3-C1P)*%
X126284800Y-64398800D02*
X126284800Y-66696400D01*
X127688400Y-68100000D02*
X129133600Y-68100000D01*
X126284800Y-66696400D02*
X127688400Y-68100000D01*
%TO.N,Net-(JP3-C1N)*%
X125664800Y-67041600D02*
X125664800Y-64398800D01*
X129133600Y-69060000D02*
X127683200Y-69060000D01*
X127683200Y-69060000D02*
X125664800Y-67041600D01*
%TO.N,SDA3*%
D27*
X132752600Y-69900800D02*
X132701800Y-69951600D01*
X103022400Y-71475600D02*
X102960600Y-71537400D01*
X121324800Y-66330400D02*
X121259600Y-66395600D01*
X134010400Y-69900800D02*
X132752600Y-69900800D01*
X102960600Y-71537400D02*
X102960600Y-73032700D01*
X121324800Y-64398800D02*
X121324800Y-66330400D01*
%TO.N,Net-(JP3-IREF)*%
D29*
X117043200Y-67362800D02*
X117498400Y-67362800D01*
X119938800Y-67259200D02*
X120704800Y-66493200D01*
X120704800Y-66493200D02*
X120704800Y-64398800D01*
X117602000Y-67259200D02*
X119938800Y-67259200D01*
X117498400Y-67362800D02*
X117602000Y-67259200D01*
%TO.N,SCL4*%
D27*
X114604800Y-71526400D02*
X114604800Y-69811400D01*
X101346000Y-74625200D02*
X101010600Y-74289800D01*
X114655600Y-71882000D02*
X114655600Y-71577200D01*
X110514800Y-77597600D02*
X110439200Y-77673200D01*
X101346000Y-74828400D02*
X101346000Y-74625200D01*
X114655600Y-71577200D02*
X114604800Y-71526400D01*
X101010600Y-74289800D02*
X101010600Y-73032700D01*
X110514800Y-75828800D02*
X110514800Y-77597600D01*
%TO.N,SDA4*%
X113842800Y-71729600D02*
X112674400Y-70561200D01*
X109894800Y-75828800D02*
X109894800Y-77097964D01*
X112674400Y-70561200D02*
X112674400Y-69811400D01*
X109894800Y-77097964D02*
X109719164Y-77273600D01*
X101660600Y-74127000D02*
X101660600Y-73032700D01*
X102006400Y-74472800D02*
X101660600Y-74127000D01*
X113842800Y-71932800D02*
X113842800Y-71729600D01*
%TD*%
M02*
