M48
; DRILL file KiCad 10.0.5 date 2026-07-27T17:39:35
; FORMAT={-:-/ absolute / metric / decimal}
; #@! TF.CreationDate,2026-07-27T17:39:35+01:00
; #@! TF.GenerationSoftware,Kicad,Pcbnew,10.0.5
; #@! TF.FileFunction,Plated,1,4,PTH
FMAT,2
METRIC
; #@! TA.AperFunction,Plated,PTH,ViaDrill
T1C0.200
; #@! TA.AperFunction,Plated,PTH,ViaDrill
T2C0.400
; #@! TA.AperFunction,Plated,PTH,ComponentDrill
T3C1.000
%
G90
G05
T1
X98.95Y-76.65
X99.517Y-69.24
X100.17Y-76.97
X101.1Y-76.9
X101.346Y-74.828
X101.651Y-77.47
X102.006Y-74.473
X102.26Y-77.013
X102.362Y-71.069
X103.022Y-71.476
X109.719Y-77.274
X110.439Y-77.673
X111.201Y-77.673
X113.843Y-71.933
X114.656Y-71.882
X115.926Y-68.58
X121.26Y-66.396
X121.971Y-65.989
X122.428Y-67.158
X130.15Y-68.936
X133.858Y-68.224
X134.01Y-69.901
X139.598Y-104.191
X139.903Y-78.842
X139.903Y-80.772
X140.106Y-104.75
X140.462Y-77.724
X140.462Y-84.633
X140.614Y-86.716
X140.665Y-105.258
X143.358Y-77.368
X143.408Y-83.109
T2
X95.758Y-74.93
X96.825Y-71.323
X96.977Y-74.93
X97.18Y-78.791
X100.33Y-74.676
X101.448Y-71.222
X104.14Y-78.791
X105.207Y-75.997
X109.576Y-71.933
X111.1Y-71.984
X112.624Y-71.882
X116.992Y-65.38
X119.278Y-68.783
X120.65Y-68.682
X124.257Y-66.446
X127.813Y-70.183
X129.743Y-72.847
X133.452Y-71.577
X134.823Y-71.628
X136.5Y-71.425
X138.684Y-101.803
X140.31Y-106.375
X141.58Y-112.8
X143.39Y-112.14
X144.272Y-100.025
X144.323Y-104.394
T3
X105.29Y-73.37
X138.75Y-113.48
X143.116Y-74.219
M30
