%TF.GenerationSoftware,KiCad,Pcbnew,10.0.5*%
%TF.CreationDate,2026-07-27T17:39:23+01:00*%
%TF.ProjectId,gk_oled_pcb,676b5f6f-6c65-4645-9f70-63622e6b6963,rev?*%
%TF.SameCoordinates,Original*%
%TF.FileFunction,Profile,NP*%
%FSLAX46Y46*%
G04 Gerber Fmt 4.6, Leading zero omitted, Abs format (unit mm)*
G04 Created by KiCad (PCBNEW 10.0.5) date 2026-07-27 17:39:23*
%MOMM*%
%LPD*%
G01*
G04 APERTURE LIST*
%TA.AperFunction,Profile*%
%ADD10C,0.100000*%
%TD*%
%TA.AperFunction,Profile*%
%ADD11C,0.050000*%
%TD*%
G04 APERTURE END LIST*
D10*
X94500000Y-65164473D02*
X94500000Y-80901600D01*
X94500000Y-80901600D02*
X97010000Y-80901600D01*
D11*
X94500000Y-114971604D02*
X94500000Y-83040000D01*
D10*
X97010000Y-80900000D02*
X97010000Y-80901600D01*
D11*
X97010000Y-80900000D02*
G75*
G02*
X97010000Y-83040000I0J-1070000D01*
G01*
X97010000Y-83040000D02*
X94500000Y-83040000D01*
X98877231Y-81570000D02*
G75*
G02*
X98482769Y-81570000I-197231J0D01*
G01*
X98482769Y-81570000D02*
G75*
G02*
X98877231Y-81570000I197231J0D01*
G01*
X99497231Y-81570000D02*
G75*
G02*
X99102769Y-81570000I-197231J0D01*
G01*
X99102769Y-81570000D02*
G75*
G02*
X99497231Y-81570000I197231J0D01*
G01*
X100117231Y-81570000D02*
G75*
G02*
X99722769Y-81570000I-197231J0D01*
G01*
X99722769Y-81570000D02*
G75*
G02*
X100117231Y-81570000I197231J0D01*
G01*
X100737231Y-81570000D02*
G75*
G02*
X100342769Y-81570000I-197231J0D01*
G01*
X100342769Y-81570000D02*
G75*
G02*
X100737231Y-81570000I197231J0D01*
G01*
X102190000Y-80900000D02*
X115305376Y-80900000D01*
X102190000Y-83040000D02*
G75*
G02*
X102190000Y-80900000I-10000J1070000D01*
G01*
D10*
X106773359Y-65164473D02*
X94500000Y-65164473D01*
X114481745Y-65164473D02*
X106773359Y-65164473D01*
X115305376Y-80901600D02*
X117810000Y-76980000D01*
X117036000Y-62931600D02*
X114481745Y-65164473D01*
X117810000Y-76980000D02*
X120751001Y-74989316D01*
X120751001Y-74989316D02*
X124926759Y-74989316D01*
X123500000Y-62931600D02*
X117036000Y-62931600D01*
X124926759Y-74989316D02*
X129398761Y-76761323D01*
X128464000Y-62931600D02*
X123500000Y-62931600D01*
X128464000Y-64419447D02*
X128464000Y-62931600D01*
X128464000Y-64631294D02*
X128464000Y-64419447D01*
X129398761Y-76761323D02*
X132013477Y-80901600D01*
D11*
X130050000Y-83040000D02*
X102190000Y-83040000D01*
X130050000Y-83040000D02*
X131042928Y-84107726D01*
D10*
X132013477Y-80901600D02*
X133180000Y-82260000D01*
D11*
X133180000Y-82260000D02*
G75*
G02*
X131042928Y-84107726I-1020000J-980000D01*
G01*
X134239000Y-83693000D02*
G75*
G02*
X133844538Y-83693000I-197231J0D01*
G01*
X133844538Y-83693000D02*
G75*
G02*
X134239000Y-83693000I197231J0D01*
G01*
X134620000Y-84074000D02*
G75*
G02*
X134225538Y-84074000I-197231J0D01*
G01*
X134225538Y-84074000D02*
G75*
G02*
X134620000Y-84074000I197231J0D01*
G01*
X135001000Y-84455000D02*
G75*
G02*
X134606538Y-84455000I-197231J0D01*
G01*
X134606538Y-84455000D02*
G75*
G02*
X135001000Y-84455000I197231J0D01*
G01*
X134885126Y-88129980D02*
G75*
G02*
X136853017Y-86290834I964874J939980D01*
G01*
X135060000Y-100990000D02*
X139930000Y-96120000D01*
X135060000Y-105250000D02*
X135060000Y-100990000D01*
X135060000Y-110920000D02*
X135060000Y-114971604D01*
X135060000Y-110920000D02*
G75*
G02*
X137200000Y-110920000I1070000J0D01*
G01*
X135060000Y-114971604D02*
X94500000Y-114971604D01*
X135382000Y-84836000D02*
G75*
G02*
X134987538Y-84836000I-197231J0D01*
G01*
X134987538Y-84836000D02*
G75*
G02*
X135382000Y-84836000I197231J0D01*
G01*
X135763000Y-85217000D02*
G75*
G02*
X135368538Y-85217000I-197231J0D01*
G01*
X135368538Y-85217000D02*
G75*
G02*
X135763000Y-85217000I197231J0D01*
G01*
X136607231Y-107210000D02*
G75*
G02*
X136212769Y-107210000I-197231J0D01*
G01*
X136212769Y-107210000D02*
G75*
G02*
X136607231Y-107210000I197231J0D01*
G01*
X136607231Y-107830000D02*
G75*
G02*
X136212769Y-107830000I-197231J0D01*
G01*
X136212769Y-107830000D02*
G75*
G02*
X136607231Y-107830000I197231J0D01*
G01*
X136607231Y-108450000D02*
G75*
G02*
X136212769Y-108450000I-197231J0D01*
G01*
X136212769Y-108450000D02*
G75*
G02*
X136607231Y-108450000I197231J0D01*
G01*
X136607231Y-109070000D02*
G75*
G02*
X136212769Y-109070000I-197231J0D01*
G01*
X136212769Y-109070000D02*
G75*
G02*
X136607231Y-109070000I197231J0D01*
G01*
D10*
X136853036Y-86290817D02*
X141419000Y-89483969D01*
D11*
X137200000Y-105250000D02*
G75*
G02*
X135060000Y-105250000I-1070000J-40000D01*
G01*
X137200000Y-105250000D02*
X137200000Y-101651844D01*
D10*
X137201004Y-110920000D02*
X137201004Y-114971604D01*
X137201004Y-114971604D02*
X145201004Y-114971604D01*
D11*
X139930000Y-91530000D02*
X134885126Y-88129980D01*
X139930000Y-96120000D02*
X139930000Y-91530000D01*
D10*
X141419000Y-89483969D02*
X142586356Y-92392013D01*
X141419000Y-98961408D02*
X137201004Y-101651844D01*
X142586356Y-92392013D02*
X142586356Y-96436534D01*
X142586356Y-96436534D02*
X141419000Y-98961408D01*
X145201004Y-72901600D02*
X128464000Y-64631294D01*
X145201004Y-106007604D02*
X145201004Y-72901600D01*
X145201004Y-114971604D02*
X145201004Y-106007604D01*
M02*
