%TF.GenerationSoftware,KiCad,Pcbnew,10.0.5*%
%TF.CreationDate,2026-07-27T17:39:23+01:00*%
%TF.ProjectId,gk_oled_pcb,676b5f6f-6c65-4645-9f70-63622e6b6963,rev?*%
%TF.SameCoordinates,Original*%
%TF.FileFunction,Copper,L3,Inr*%
%TF.FilePolarity,Positive*%
%FSLAX46Y46*%
G04 Gerber Fmt 4.6, Leading zero omitted, Abs format (unit mm)*
G04 Created by KiCad (PCBNEW 10.0.5) date 2026-07-27 17:39:23*
%MOMM*%
%LPD*%
G01*
G04 APERTURE LIST*
%TA.AperFunction,ComponentPad*%
%ADD10R,1.700000X1.700000*%
%TD*%
%TA.AperFunction,ViaPad*%
%ADD11C,0.450000*%
%TD*%
%TA.AperFunction,ViaPad*%
%ADD12C,0.800000*%
%TD*%
G04 APERTURE END LIST*
D10*
%TO.N,GND*%
%TO.C,J5*%
X105290000Y-73370000D03*
%TD*%
%TO.N,GND*%
%TO.C,J3*%
X138750000Y-113480000D03*
%TD*%
%TO.N,GND*%
%TO.C,J2*%
X143116030Y-74218800D03*
%TD*%
D11*
%TO.N,OLED_NRES*%
X99517200Y-69240400D03*
D12*
%TO.N,GND*%
X101447600Y-71221600D03*
%TO.N,VCC*%
X96824800Y-71323200D03*
%TO.N,GND*%
X105206800Y-75996800D03*
X140309600Y-106375200D03*
X97180400Y-78790800D03*
X124256800Y-66446400D03*
X144272000Y-100025200D03*
X96977200Y-74930000D03*
X119278400Y-68783200D03*
X95758000Y-74930000D03*
X116992400Y-65379600D03*
X138684000Y-101803200D03*
X104140000Y-78790800D03*
X143390000Y-112140000D03*
X111099600Y-71983600D03*
X100330000Y-74676000D03*
X129743200Y-72847200D03*
X134823200Y-71628000D03*
D11*
%TO.N,VCC*%
X130149600Y-68935600D03*
D12*
X127812800Y-70182800D03*
X109575600Y-71932800D03*
D11*
X143357600Y-77368400D03*
D12*
X112623600Y-71882000D03*
X141580000Y-112800000D03*
X144322800Y-104394000D03*
D11*
X115925600Y-68580000D03*
D12*
X133451600Y-71577200D03*
X120650000Y-68681600D03*
X136499600Y-71424800D03*
D11*
X143408400Y-83108800D03*
%TO.N,SDA2*%
X139903200Y-80772000D03*
X101650800Y-77470000D03*
%TO.N,OLED_NRES*%
X111201200Y-77673200D03*
X122428000Y-67157600D03*
X140462000Y-77724000D03*
X140665200Y-105257600D03*
X98950000Y-76650000D03*
%TO.N,SCL2*%
X139903200Y-78841600D03*
X102260400Y-77012800D03*
%TO.N,SCL3*%
X133858000Y-68224400D03*
X121970800Y-65989200D03*
X102362000Y-71069200D03*
%TO.N,SCL1*%
X101100000Y-76900000D03*
X140462000Y-84632800D03*
X140106400Y-104749600D03*
%TO.N,SDA1*%
X100170000Y-76970000D03*
X139598400Y-104190800D03*
X140614400Y-86715600D03*
%TO.N,SDA3*%
X121259600Y-66395600D03*
X103022400Y-71475600D03*
X134010400Y-69900800D03*
%TO.N,SCL4*%
X101346000Y-74828400D03*
X114655600Y-71882000D03*
X110439200Y-77673200D03*
%TO.N,SDA4*%
X102006400Y-74472800D03*
X113842800Y-71932800D03*
X109719164Y-77273600D03*
%TD*%
%TA.AperFunction,Conductor*%
%TO.N,VCC*%
G36*
X128206539Y-63151785D02*
G01*
X128252294Y-63204589D01*
X128263500Y-63256100D01*
X128263500Y-64620545D01*
X128263228Y-64628752D01*
X128262036Y-64646708D01*
X128262036Y-64646709D01*
X128261300Y-64657816D01*
X128263500Y-64664314D01*
X128263500Y-64671176D01*
X128276220Y-64701886D01*
X128286879Y-64733368D01*
X128291398Y-64738530D01*
X128294024Y-64744868D01*
X128317524Y-64768368D01*
X128339423Y-64793379D01*
X128345574Y-64796418D01*
X128350426Y-64801270D01*
X128381131Y-64813988D01*
X133523550Y-67355027D01*
X133574931Y-67402373D01*
X133592559Y-67469982D01*
X133570836Y-67536389D01*
X133519500Y-67578196D01*
X133519717Y-67578601D01*
X133517642Y-67579709D01*
X133516660Y-67580510D01*
X133516085Y-67580750D01*
X133514355Y-67581466D01*
X133514340Y-67581474D01*
X133395521Y-67660867D01*
X133395517Y-67660870D01*
X133294470Y-67761917D01*
X133294467Y-67761921D01*
X133215074Y-67880740D01*
X133215069Y-67880749D01*
X133160381Y-68012779D01*
X133160379Y-68012785D01*
X133132500Y-68152942D01*
X133132500Y-68152944D01*
X133132500Y-68152945D01*
X133132500Y-68295855D01*
X133132500Y-68295857D01*
X133132499Y-68295857D01*
X133160379Y-68436014D01*
X133160381Y-68436020D01*
X133215069Y-68568050D01*
X133215074Y-68568059D01*
X133294467Y-68686878D01*
X133294470Y-68686882D01*
X133395517Y-68787929D01*
X133395521Y-68787932D01*
X133514340Y-68867325D01*
X133514349Y-68867330D01*
X133525365Y-68871893D01*
X133646380Y-68922019D01*
X133646384Y-68922019D01*
X133646385Y-68922020D01*
X133786542Y-68949900D01*
X133786545Y-68949900D01*
X133807337Y-68949900D01*
X133929455Y-68949900D01*
X134037384Y-68928431D01*
X134037386Y-68928431D01*
X134051756Y-68925572D01*
X134069620Y-68922019D01*
X134201653Y-68867329D01*
X134320479Y-68787932D01*
X134421532Y-68686879D01*
X134500929Y-68568053D01*
X134555619Y-68436020D01*
X134583500Y-68295855D01*
X134583500Y-68152945D01*
X134583499Y-68152942D01*
X134580703Y-68138886D01*
X134572125Y-68095760D01*
X134578351Y-68026172D01*
X134621214Y-67970994D01*
X134687103Y-67947748D01*
X134748674Y-67960401D01*
X139526131Y-70321100D01*
X144817814Y-72935895D01*
X144931436Y-72992039D01*
X144982818Y-73039386D01*
X145000504Y-73103208D01*
X145000504Y-99196960D01*
X144980819Y-99263999D01*
X144928015Y-99309754D01*
X144858857Y-99319698D01*
X144807613Y-99300062D01*
X144698553Y-99227190D01*
X144698540Y-99227183D01*
X144534667Y-99159306D01*
X144534658Y-99159303D01*
X144360694Y-99124700D01*
X144360691Y-99124700D01*
X144183309Y-99124700D01*
X144183306Y-99124700D01*
X144009341Y-99159303D01*
X144009332Y-99159306D01*
X143845459Y-99227183D01*
X143845446Y-99227190D01*
X143697965Y-99325735D01*
X143697961Y-99325738D01*
X143572538Y-99451161D01*
X143572535Y-99451165D01*
X143473990Y-99598646D01*
X143473983Y-99598659D01*
X143406106Y-99762532D01*
X143406103Y-99762541D01*
X143371500Y-99936504D01*
X143371500Y-100113895D01*
X143406103Y-100287858D01*
X143406106Y-100287867D01*
X143473983Y-100451740D01*
X143473990Y-100451753D01*
X143572535Y-100599234D01*
X143572538Y-100599238D01*
X143697961Y-100724661D01*
X143697965Y-100724664D01*
X143845446Y-100823209D01*
X143845459Y-100823216D01*
X143968363Y-100874123D01*
X144009334Y-100891094D01*
X144009336Y-100891094D01*
X144009341Y-100891096D01*
X144183304Y-100925699D01*
X144183307Y-100925700D01*
X144183309Y-100925700D01*
X144360693Y-100925700D01*
X144360694Y-100925699D01*
X144418682Y-100914164D01*
X144534658Y-100891096D01*
X144534661Y-100891094D01*
X144534666Y-100891094D01*
X144698547Y-100823213D01*
X144807613Y-100750337D01*
X144874290Y-100729459D01*
X144941670Y-100747943D01*
X144988361Y-100799922D01*
X145000504Y-100853439D01*
X145000504Y-114647104D01*
X144980819Y-114714143D01*
X144928015Y-114759898D01*
X144876504Y-114771104D01*
X140142717Y-114771104D01*
X140075678Y-114751419D01*
X140029923Y-114698615D01*
X140019979Y-114629457D01*
X140040257Y-114580502D01*
X140039546Y-114580114D01*
X140043158Y-114573499D01*
X140043451Y-114572792D01*
X140043483Y-114572748D01*
X140043796Y-114572331D01*
X140094091Y-114437483D01*
X140100500Y-114377873D01*
X140100499Y-112582128D01*
X140094091Y-112522517D01*
X140043796Y-112387669D01*
X140043795Y-112387668D01*
X140043793Y-112387664D01*
X139957547Y-112272455D01*
X139957544Y-112272452D01*
X139842335Y-112186206D01*
X139842328Y-112186202D01*
X139775826Y-112161399D01*
X139707482Y-112135908D01*
X139707483Y-112135908D01*
X139647883Y-112129501D01*
X139647881Y-112129500D01*
X139647873Y-112129500D01*
X139647864Y-112129500D01*
X137852129Y-112129500D01*
X137852123Y-112129501D01*
X137792516Y-112135908D01*
X137657671Y-112186202D01*
X137657665Y-112186206D01*
X137599814Y-112229513D01*
X137534350Y-112253930D01*
X137466077Y-112239078D01*
X137416672Y-112189673D01*
X137401504Y-112130246D01*
X137401504Y-112051304D01*
X142489500Y-112051304D01*
X142489500Y-112228695D01*
X142524103Y-112402658D01*
X142524106Y-112402667D01*
X142591983Y-112566540D01*
X142591990Y-112566553D01*
X142690535Y-112714034D01*
X142690538Y-112714038D01*
X142815961Y-112839461D01*
X142815965Y-112839464D01*
X142963446Y-112938009D01*
X142963459Y-112938016D01*
X143086363Y-112988923D01*
X143127334Y-113005894D01*
X143127336Y-113005894D01*
X143127341Y-113005896D01*
X143301304Y-113040499D01*
X143301307Y-113040500D01*
X143301309Y-113040500D01*
X143478693Y-113040500D01*
X143478694Y-113040499D01*
X143536682Y-113028964D01*
X143652658Y-113005896D01*
X143652661Y-113005894D01*
X143652666Y-113005894D01*
X143816547Y-112938013D01*
X143964035Y-112839464D01*
X144089464Y-112714035D01*
X144188013Y-112566547D01*
X144189281Y-112563487D01*
X144206251Y-112522516D01*
X144255894Y-112402666D01*
X144290500Y-112228691D01*
X144290500Y-112051309D01*
X144290500Y-112051306D01*
X144290499Y-112051304D01*
X144255896Y-111877341D01*
X144255893Y-111877332D01*
X144188016Y-111713459D01*
X144188009Y-111713446D01*
X144089464Y-111565965D01*
X144089461Y-111565961D01*
X143964038Y-111440538D01*
X143964034Y-111440535D01*
X143816553Y-111341990D01*
X143816540Y-111341983D01*
X143652667Y-111274106D01*
X143652658Y-111274103D01*
X143478694Y-111239500D01*
X143478691Y-111239500D01*
X143301309Y-111239500D01*
X143301306Y-111239500D01*
X143127341Y-111274103D01*
X143127332Y-111274106D01*
X142963459Y-111341983D01*
X142963446Y-111341990D01*
X142815965Y-111440535D01*
X142815961Y-111440538D01*
X142690538Y-111565961D01*
X142690535Y-111565965D01*
X142591990Y-111713446D01*
X142591983Y-111713459D01*
X142524106Y-111877332D01*
X142524103Y-111877341D01*
X142489500Y-112051304D01*
X137401504Y-112051304D01*
X137401504Y-111669858D01*
X137421189Y-111602819D01*
X137437823Y-111582177D01*
X137745897Y-111274103D01*
X138090000Y-110930000D01*
X138090000Y-104450000D01*
X137902257Y-104262257D01*
X138872899Y-104262257D01*
X138900779Y-104402414D01*
X138900781Y-104402420D01*
X138955469Y-104534450D01*
X138955474Y-104534459D01*
X139034867Y-104653278D01*
X139034870Y-104653282D01*
X139135917Y-104754329D01*
X139135921Y-104754332D01*
X139254740Y-104833725D01*
X139254753Y-104833732D01*
X139333740Y-104866449D01*
X139388144Y-104910289D01*
X139407906Y-104956820D01*
X139408781Y-104961219D01*
X139463469Y-105093250D01*
X139463474Y-105093259D01*
X139542867Y-105212078D01*
X139542870Y-105212082D01*
X139643917Y-105313129D01*
X139643921Y-105313132D01*
X139762740Y-105392525D01*
X139762753Y-105392532D01*
X139793286Y-105405179D01*
X139847690Y-105449019D01*
X139869755Y-105515313D01*
X139852476Y-105583013D01*
X139814725Y-105622842D01*
X139735565Y-105675735D01*
X139735561Y-105675738D01*
X139610138Y-105801161D01*
X139610135Y-105801165D01*
X139511590Y-105948646D01*
X139511583Y-105948659D01*
X139443706Y-106112532D01*
X139443703Y-106112541D01*
X139409100Y-106286504D01*
X139409100Y-106463895D01*
X139443703Y-106637858D01*
X139443706Y-106637867D01*
X139511583Y-106801740D01*
X139511590Y-106801753D01*
X139610135Y-106949234D01*
X139610138Y-106949238D01*
X139735561Y-107074661D01*
X139735565Y-107074664D01*
X139883046Y-107173209D01*
X139883059Y-107173216D01*
X140005963Y-107224123D01*
X140046934Y-107241094D01*
X140046936Y-107241094D01*
X140046941Y-107241096D01*
X140220904Y-107275699D01*
X140220907Y-107275700D01*
X140220909Y-107275700D01*
X140398293Y-107275700D01*
X140398294Y-107275699D01*
X140456282Y-107264164D01*
X140572258Y-107241096D01*
X140572261Y-107241094D01*
X140572266Y-107241094D01*
X140736147Y-107173213D01*
X140883635Y-107074664D01*
X141009064Y-106949235D01*
X141107613Y-106801747D01*
X141175494Y-106637866D01*
X141210100Y-106463891D01*
X141210100Y-106286509D01*
X141210100Y-106286506D01*
X141210099Y-106286504D01*
X141175496Y-106112541D01*
X141175493Y-106112532D01*
X141107847Y-105949217D01*
X141100378Y-105879748D01*
X141131654Y-105817269D01*
X141134699Y-105814111D01*
X141228732Y-105720079D01*
X141308129Y-105601253D01*
X141362819Y-105469220D01*
X141375558Y-105405179D01*
X141390700Y-105329057D01*
X141390700Y-105186142D01*
X141362820Y-105045985D01*
X141362819Y-105045984D01*
X141362819Y-105045980D01*
X141308129Y-104913947D01*
X141308128Y-104913946D01*
X141308125Y-104913940D01*
X141228732Y-104795121D01*
X141228729Y-104795117D01*
X141127682Y-104694070D01*
X141127678Y-104694067D01*
X141008859Y-104614674D01*
X141008850Y-104614669D01*
X140923499Y-104579316D01*
X140876820Y-104559981D01*
X140872419Y-104559105D01*
X140810509Y-104526721D01*
X140782049Y-104484940D01*
X140749332Y-104405953D01*
X140749325Y-104405940D01*
X140669932Y-104287121D01*
X140669929Y-104287117D01*
X140568882Y-104186070D01*
X140568878Y-104186067D01*
X140450059Y-104106674D01*
X140450050Y-104106669D01*
X140371058Y-104073950D01*
X140316655Y-104030109D01*
X140296893Y-103983574D01*
X140296019Y-103979180D01*
X140241329Y-103847147D01*
X140241328Y-103847146D01*
X140241325Y-103847140D01*
X140161932Y-103728321D01*
X140161929Y-103728317D01*
X140060882Y-103627270D01*
X140060878Y-103627267D01*
X139942059Y-103547874D01*
X139942050Y-103547869D01*
X139810020Y-103493181D01*
X139810014Y-103493179D01*
X139669857Y-103465300D01*
X139669855Y-103465300D01*
X139526945Y-103465300D01*
X139526943Y-103465300D01*
X139386785Y-103493179D01*
X139386779Y-103493181D01*
X139254749Y-103547869D01*
X139254740Y-103547874D01*
X139135921Y-103627267D01*
X139135917Y-103627270D01*
X139034870Y-103728317D01*
X139034867Y-103728321D01*
X138955474Y-103847140D01*
X138955469Y-103847149D01*
X138900781Y-103979179D01*
X138900779Y-103979185D01*
X138872900Y-104119342D01*
X138872900Y-104119345D01*
X138872900Y-104262255D01*
X138872900Y-104262257D01*
X138872899Y-104262257D01*
X137902257Y-104262257D01*
X137436819Y-103796819D01*
X137403334Y-103735496D01*
X137400500Y-103709138D01*
X137400500Y-101830395D01*
X137420185Y-101763356D01*
X137457817Y-101725852D01*
X137592817Y-101639742D01*
X137659923Y-101620286D01*
X137726895Y-101640199D01*
X137772469Y-101693159D01*
X137783500Y-101744285D01*
X137783500Y-101891895D01*
X137818103Y-102065858D01*
X137818106Y-102065867D01*
X137885983Y-102229740D01*
X137885990Y-102229753D01*
X137984535Y-102377234D01*
X137984538Y-102377238D01*
X138109961Y-102502661D01*
X138109965Y-102502664D01*
X138257446Y-102601209D01*
X138257459Y-102601216D01*
X138380363Y-102652123D01*
X138421334Y-102669094D01*
X138421336Y-102669094D01*
X138421341Y-102669096D01*
X138595304Y-102703699D01*
X138595307Y-102703700D01*
X138595309Y-102703700D01*
X138772693Y-102703700D01*
X138772694Y-102703699D01*
X138830682Y-102692164D01*
X138946658Y-102669096D01*
X138946661Y-102669094D01*
X138946666Y-102669094D01*
X139110547Y-102601213D01*
X139258035Y-102502664D01*
X139383464Y-102377235D01*
X139482013Y-102229747D01*
X139549894Y-102065866D01*
X139584500Y-101891891D01*
X139584500Y-101714509D01*
X139584500Y-101714506D01*
X139584499Y-101714504D01*
X139549896Y-101540541D01*
X139549893Y-101540532D01*
X139482016Y-101376659D01*
X139482009Y-101376646D01*
X139383464Y-101229165D01*
X139383461Y-101229161D01*
X139258038Y-101103738D01*
X139258034Y-101103735D01*
X139110553Y-101005190D01*
X139110540Y-101005183D01*
X139013448Y-100964967D01*
X138959044Y-100921126D01*
X138936979Y-100854832D01*
X138954258Y-100787133D01*
X138994214Y-100745864D01*
X141508538Y-99142109D01*
X141525622Y-99135829D01*
X141541844Y-99120865D01*
X141560446Y-99109001D01*
X141570875Y-99094088D01*
X141584253Y-99081750D01*
X141593512Y-99061722D01*
X141606161Y-99043638D01*
X141610090Y-99025865D01*
X142747096Y-96566635D01*
X142756237Y-96550336D01*
X142756331Y-96550108D01*
X142756332Y-96550108D01*
X142769088Y-96519307D01*
X142771099Y-96514718D01*
X142785083Y-96484475D01*
X142785083Y-96484473D01*
X142785191Y-96484240D01*
X142785467Y-96483392D01*
X142785561Y-96482921D01*
X142786645Y-96477996D01*
X142786750Y-96477560D01*
X142786856Y-96476669D01*
X142786856Y-96443097D01*
X142786957Y-96438091D01*
X142788303Y-96404777D01*
X142788302Y-96404774D01*
X142788312Y-96404530D01*
X142786856Y-96385885D01*
X142786856Y-92393835D01*
X142786863Y-92392478D01*
X142786867Y-92392025D01*
X142787281Y-92354333D01*
X142787280Y-92354331D01*
X142787281Y-92354268D01*
X142787193Y-92353826D01*
X142786933Y-92352479D01*
X142786876Y-92352179D01*
X142772256Y-92316883D01*
X142771770Y-92315694D01*
X141612811Y-89428567D01*
X141609485Y-89409765D01*
X141598098Y-89391914D01*
X141590211Y-89372266D01*
X141576858Y-89358616D01*
X141566589Y-89342518D01*
X141549238Y-89330384D01*
X141534432Y-89315249D01*
X141516871Y-89307748D01*
X139020121Y-87561676D01*
X137912475Y-86787057D01*
X139888899Y-86787057D01*
X139916779Y-86927214D01*
X139916781Y-86927220D01*
X139971469Y-87059250D01*
X139971474Y-87059259D01*
X140050867Y-87178078D01*
X140050870Y-87178082D01*
X140151917Y-87279129D01*
X140151921Y-87279132D01*
X140270740Y-87358525D01*
X140270746Y-87358528D01*
X140270747Y-87358529D01*
X140402780Y-87413219D01*
X140402784Y-87413219D01*
X140402785Y-87413220D01*
X140542942Y-87441100D01*
X140542945Y-87441100D01*
X140685857Y-87441100D01*
X140780151Y-87422342D01*
X140826020Y-87413219D01*
X140958053Y-87358529D01*
X141076879Y-87279132D01*
X141177932Y-87178079D01*
X141257329Y-87059253D01*
X141312019Y-86927220D01*
X141339900Y-86787055D01*
X141339900Y-86644145D01*
X141339900Y-86644142D01*
X141312020Y-86503985D01*
X141312019Y-86503984D01*
X141312019Y-86503980D01*
X141257329Y-86371947D01*
X141257328Y-86371946D01*
X141257325Y-86371940D01*
X141177932Y-86253121D01*
X141177929Y-86253117D01*
X141076882Y-86152070D01*
X141076878Y-86152067D01*
X140958059Y-86072674D01*
X140958050Y-86072669D01*
X140826020Y-86017981D01*
X140826014Y-86017979D01*
X140685857Y-85990100D01*
X140685855Y-85990100D01*
X140542945Y-85990100D01*
X140542943Y-85990100D01*
X140402785Y-86017979D01*
X140402779Y-86017981D01*
X140270749Y-86072669D01*
X140270740Y-86072674D01*
X140151921Y-86152067D01*
X140151917Y-86152070D01*
X140050870Y-86253117D01*
X140050867Y-86253121D01*
X139971474Y-86371940D01*
X139971469Y-86371949D01*
X139916781Y-86503979D01*
X139916779Y-86503985D01*
X139888900Y-86644142D01*
X139888900Y-86644145D01*
X139888900Y-86787055D01*
X139888900Y-86787057D01*
X139888899Y-86787057D01*
X137912475Y-86787057D01*
X137844714Y-86739669D01*
X137085936Y-86209027D01*
X137042279Y-86154476D01*
X137033000Y-86107411D01*
X137033000Y-84704257D01*
X139736499Y-84704257D01*
X139764379Y-84844414D01*
X139764381Y-84844420D01*
X139819069Y-84976450D01*
X139819074Y-84976459D01*
X139898467Y-85095278D01*
X139898470Y-85095282D01*
X139999517Y-85196329D01*
X139999521Y-85196332D01*
X140118340Y-85275725D01*
X140118346Y-85275728D01*
X140118347Y-85275729D01*
X140250380Y-85330419D01*
X140250384Y-85330419D01*
X140250385Y-85330420D01*
X140390542Y-85358300D01*
X140390545Y-85358300D01*
X140533457Y-85358300D01*
X140627751Y-85339542D01*
X140673620Y-85330419D01*
X140805653Y-85275729D01*
X140924479Y-85196332D01*
X141025532Y-85095279D01*
X141104929Y-84976453D01*
X141159619Y-84844420D01*
X141168742Y-84798551D01*
X141187500Y-84704257D01*
X141187500Y-84561342D01*
X141159620Y-84421185D01*
X141159619Y-84421184D01*
X141159619Y-84421180D01*
X141104929Y-84289147D01*
X141104928Y-84289146D01*
X141104925Y-84289140D01*
X141025532Y-84170321D01*
X141025529Y-84170317D01*
X140924482Y-84069270D01*
X140924478Y-84069267D01*
X140805659Y-83989874D01*
X140805650Y-83989869D01*
X140673620Y-83935181D01*
X140673614Y-83935179D01*
X140533457Y-83907300D01*
X140533455Y-83907300D01*
X140390545Y-83907300D01*
X140390543Y-83907300D01*
X140250385Y-83935179D01*
X140250379Y-83935181D01*
X140118349Y-83989869D01*
X140118340Y-83989874D01*
X139999521Y-84069267D01*
X139999517Y-84069270D01*
X139898470Y-84170317D01*
X139898467Y-84170321D01*
X139819074Y-84289140D01*
X139819069Y-84289149D01*
X139764381Y-84421179D01*
X139764379Y-84421185D01*
X139736500Y-84561342D01*
X139736500Y-84561345D01*
X139736500Y-84704255D01*
X139736500Y-84704257D01*
X139736499Y-84704257D01*
X137033000Y-84704257D01*
X137033000Y-84582000D01*
X133985000Y-81534000D01*
X132877794Y-81534000D01*
X132810755Y-81514315D01*
X132783721Y-81490785D01*
X132757284Y-81460000D01*
X132227830Y-80843457D01*
X139177699Y-80843457D01*
X139205579Y-80983614D01*
X139205581Y-80983620D01*
X139260269Y-81115650D01*
X139260274Y-81115659D01*
X139339667Y-81234478D01*
X139339670Y-81234482D01*
X139440717Y-81335529D01*
X139440721Y-81335532D01*
X139559540Y-81414925D01*
X139559546Y-81414928D01*
X139559547Y-81414929D01*
X139691580Y-81469619D01*
X139691584Y-81469619D01*
X139691585Y-81469620D01*
X139831742Y-81497500D01*
X139831745Y-81497500D01*
X139974657Y-81497500D01*
X140068951Y-81478742D01*
X140114820Y-81469619D01*
X140246853Y-81414929D01*
X140365679Y-81335532D01*
X140466732Y-81234479D01*
X140546129Y-81115653D01*
X140600819Y-80983620D01*
X140609942Y-80937751D01*
X140628700Y-80843457D01*
X140628700Y-80700542D01*
X140600820Y-80560385D01*
X140600819Y-80560384D01*
X140600819Y-80560380D01*
X140546129Y-80428347D01*
X140546128Y-80428346D01*
X140546125Y-80428340D01*
X140466732Y-80309521D01*
X140466729Y-80309517D01*
X140365682Y-80208470D01*
X140365678Y-80208467D01*
X140246859Y-80129074D01*
X140246850Y-80129069D01*
X140114820Y-80074381D01*
X140114814Y-80074379D01*
X139974657Y-80046500D01*
X139974655Y-80046500D01*
X139831745Y-80046500D01*
X139831743Y-80046500D01*
X139691585Y-80074379D01*
X139691579Y-80074381D01*
X139559549Y-80129069D01*
X139559540Y-80129074D01*
X139440721Y-80208467D01*
X139440717Y-80208470D01*
X139339670Y-80309517D01*
X139339667Y-80309521D01*
X139260274Y-80428340D01*
X139260269Y-80428349D01*
X139205581Y-80560379D01*
X139205579Y-80560385D01*
X139177700Y-80700542D01*
X139177700Y-80700545D01*
X139177700Y-80843455D01*
X139177700Y-80843457D01*
X139177699Y-80843457D01*
X132227830Y-80843457D01*
X132181081Y-80789018D01*
X132170312Y-80774445D01*
X132161610Y-80760666D01*
X132161609Y-80760665D01*
X131951741Y-80428349D01*
X130994786Y-78913057D01*
X139177699Y-78913057D01*
X139205579Y-79053214D01*
X139205581Y-79053220D01*
X139260269Y-79185250D01*
X139260274Y-79185259D01*
X139339667Y-79304078D01*
X139339670Y-79304082D01*
X139440717Y-79405129D01*
X139440721Y-79405132D01*
X139559540Y-79484525D01*
X139559546Y-79484528D01*
X139559547Y-79484529D01*
X139691580Y-79539219D01*
X139691584Y-79539219D01*
X139691585Y-79539220D01*
X139831742Y-79567100D01*
X139831745Y-79567100D01*
X139974657Y-79567100D01*
X140068951Y-79548342D01*
X140114820Y-79539219D01*
X140246853Y-79484529D01*
X140365679Y-79405132D01*
X140466732Y-79304079D01*
X140546129Y-79185253D01*
X140600819Y-79053220D01*
X140628700Y-78913055D01*
X140628700Y-78770145D01*
X140628700Y-78770142D01*
X140600820Y-78629985D01*
X140600819Y-78629984D01*
X140600819Y-78629980D01*
X140584444Y-78590448D01*
X140576976Y-78520982D01*
X140608251Y-78458503D01*
X140668339Y-78422850D01*
X140673181Y-78421751D01*
X140673610Y-78421620D01*
X140673620Y-78421619D01*
X140805653Y-78366929D01*
X140924479Y-78287532D01*
X141025532Y-78186479D01*
X141104929Y-78067653D01*
X141159619Y-77935620D01*
X141179210Y-77837132D01*
X141187500Y-77795457D01*
X141187500Y-77652542D01*
X141159620Y-77512385D01*
X141159619Y-77512384D01*
X141159619Y-77512380D01*
X141104929Y-77380347D01*
X141104928Y-77380346D01*
X141104925Y-77380340D01*
X141025532Y-77261521D01*
X141025529Y-77261517D01*
X140924482Y-77160470D01*
X140924478Y-77160467D01*
X140805659Y-77081074D01*
X140805650Y-77081069D01*
X140673620Y-77026381D01*
X140673614Y-77026379D01*
X140533457Y-76998500D01*
X140533455Y-76998500D01*
X140390545Y-76998500D01*
X140390543Y-76998500D01*
X140250385Y-77026379D01*
X140250379Y-77026381D01*
X140118349Y-77081069D01*
X140118340Y-77081074D01*
X139999521Y-77160467D01*
X139999517Y-77160470D01*
X139898470Y-77261517D01*
X139898467Y-77261521D01*
X139819074Y-77380340D01*
X139819069Y-77380349D01*
X139764381Y-77512379D01*
X139764379Y-77512385D01*
X139736500Y-77652542D01*
X139736500Y-77652545D01*
X139736500Y-77795455D01*
X139736500Y-77795457D01*
X139736499Y-77795457D01*
X139764379Y-77935614D01*
X139764382Y-77935624D01*
X139780754Y-77975149D01*
X139788223Y-78044618D01*
X139756948Y-78107097D01*
X139696858Y-78142749D01*
X139692030Y-78143844D01*
X139691579Y-78143981D01*
X139559549Y-78198669D01*
X139559540Y-78198674D01*
X139440721Y-78278067D01*
X139440717Y-78278070D01*
X139339670Y-78379117D01*
X139339667Y-78379121D01*
X139260274Y-78497940D01*
X139260269Y-78497949D01*
X139205581Y-78629979D01*
X139205579Y-78629985D01*
X139177700Y-78770142D01*
X139177700Y-78770145D01*
X139177700Y-78913055D01*
X139177700Y-78913057D01*
X139177699Y-78913057D01*
X130994786Y-78913057D01*
X129576607Y-76667441D01*
X129566964Y-76645139D01*
X129555508Y-76634032D01*
X129546990Y-76620543D01*
X129527143Y-76606528D01*
X129509699Y-76589615D01*
X129494866Y-76583737D01*
X129481832Y-76574534D01*
X129458131Y-76569181D01*
X129430858Y-76558374D01*
X129430857Y-76558373D01*
X125002896Y-74803817D01*
X125001123Y-74803098D01*
X124966531Y-74788770D01*
X124965990Y-74788671D01*
X124964123Y-74788315D01*
X124963654Y-74788221D01*
X124926160Y-74788801D01*
X124924245Y-74788816D01*
X120770141Y-74788816D01*
X120749777Y-74784892D01*
X120730649Y-74788816D01*
X120711119Y-74788816D01*
X120691956Y-74796753D01*
X120671640Y-74800921D01*
X120655468Y-74811866D01*
X120637427Y-74819340D01*
X120622761Y-74834005D01*
X120597573Y-74851054D01*
X120597570Y-74851055D01*
X117740092Y-76785206D01*
X117733637Y-76788768D01*
X117697095Y-76814292D01*
X117695602Y-76815319D01*
X117664496Y-76836375D01*
X117664142Y-76836745D01*
X117662874Y-76838047D01*
X117662546Y-76838378D01*
X117642326Y-76870037D01*
X117641338Y-76871559D01*
X117616801Y-76908763D01*
X117613419Y-76915297D01*
X115233116Y-80642244D01*
X115180441Y-80688148D01*
X115128611Y-80699500D01*
X102420862Y-80699500D01*
X102353823Y-80679815D01*
X102333181Y-80663181D01*
X101840000Y-80170000D01*
X97560000Y-80170000D01*
X97559999Y-80170000D01*
X97066819Y-80663181D01*
X97005496Y-80696666D01*
X96979138Y-80699500D01*
X96966111Y-80699500D01*
X96949862Y-80701100D01*
X94824500Y-80701100D01*
X94757461Y-80681415D01*
X94711706Y-80628611D01*
X94700500Y-80577100D01*
X94700500Y-78702104D01*
X96279900Y-78702104D01*
X96279900Y-78879495D01*
X96314503Y-79053458D01*
X96314506Y-79053467D01*
X96382383Y-79217340D01*
X96382390Y-79217353D01*
X96480935Y-79364834D01*
X96480938Y-79364838D01*
X96606361Y-79490261D01*
X96606365Y-79490264D01*
X96753846Y-79588809D01*
X96753859Y-79588816D01*
X96876763Y-79639723D01*
X96917734Y-79656694D01*
X96917736Y-79656694D01*
X96917741Y-79656696D01*
X97091704Y-79691299D01*
X97091707Y-79691300D01*
X97091709Y-79691300D01*
X97269093Y-79691300D01*
X97269094Y-79691299D01*
X97327082Y-79679764D01*
X97443058Y-79656696D01*
X97443061Y-79656694D01*
X97443066Y-79656694D01*
X97606947Y-79588813D01*
X97754435Y-79490264D01*
X97879864Y-79364835D01*
X97978413Y-79217347D01*
X98046294Y-79053466D01*
X98046345Y-79053214D01*
X98080899Y-78879495D01*
X98080900Y-78879493D01*
X98080900Y-78702106D01*
X98080899Y-78702104D01*
X103239500Y-78702104D01*
X103239500Y-78879495D01*
X103274103Y-79053458D01*
X103274106Y-79053467D01*
X103341983Y-79217340D01*
X103341990Y-79217353D01*
X103440535Y-79364834D01*
X103440538Y-79364838D01*
X103565961Y-79490261D01*
X103565965Y-79490264D01*
X103713446Y-79588809D01*
X103713459Y-79588816D01*
X103836363Y-79639723D01*
X103877334Y-79656694D01*
X103877336Y-79656694D01*
X103877341Y-79656696D01*
X104051304Y-79691299D01*
X104051307Y-79691300D01*
X104051309Y-79691300D01*
X104228693Y-79691300D01*
X104228694Y-79691299D01*
X104286682Y-79679764D01*
X104402658Y-79656696D01*
X104402661Y-79656694D01*
X104402666Y-79656694D01*
X104566547Y-79588813D01*
X104714035Y-79490264D01*
X104839464Y-79364835D01*
X104938013Y-79217347D01*
X105005894Y-79053466D01*
X105005945Y-79053214D01*
X105040499Y-78879495D01*
X105040500Y-78879493D01*
X105040500Y-78702106D01*
X105040499Y-78702104D01*
X105005896Y-78528141D01*
X105005893Y-78528132D01*
X105002931Y-78520982D01*
X104973323Y-78449500D01*
X104938016Y-78364259D01*
X104938009Y-78364246D01*
X104839464Y-78216765D01*
X104839461Y-78216761D01*
X104714038Y-78091338D01*
X104714034Y-78091335D01*
X104566553Y-77992790D01*
X104566540Y-77992783D01*
X104402667Y-77924906D01*
X104402658Y-77924903D01*
X104228694Y-77890300D01*
X104228691Y-77890300D01*
X104051309Y-77890300D01*
X104051306Y-77890300D01*
X103877341Y-77924903D01*
X103877332Y-77924906D01*
X103713459Y-77992783D01*
X103713446Y-77992790D01*
X103565965Y-78091335D01*
X103565961Y-78091338D01*
X103440538Y-78216761D01*
X103440535Y-78216765D01*
X103341990Y-78364246D01*
X103341983Y-78364259D01*
X103274106Y-78528132D01*
X103274103Y-78528141D01*
X103239500Y-78702104D01*
X98080899Y-78702104D01*
X98046296Y-78528141D01*
X98046293Y-78528132D01*
X98043331Y-78520982D01*
X98013723Y-78449500D01*
X97978416Y-78364259D01*
X97978409Y-78364246D01*
X97879864Y-78216765D01*
X97879861Y-78216761D01*
X97754438Y-78091338D01*
X97754434Y-78091335D01*
X97606953Y-77992790D01*
X97606940Y-77992783D01*
X97443067Y-77924906D01*
X97443058Y-77924903D01*
X97269094Y-77890300D01*
X97269091Y-77890300D01*
X97091709Y-77890300D01*
X97091706Y-77890300D01*
X96917741Y-77924903D01*
X96917732Y-77924906D01*
X96753859Y-77992783D01*
X96753846Y-77992790D01*
X96606365Y-78091335D01*
X96606361Y-78091338D01*
X96480938Y-78216761D01*
X96480935Y-78216765D01*
X96382390Y-78364246D01*
X96382383Y-78364259D01*
X96314506Y-78528132D01*
X96314503Y-78528141D01*
X96279900Y-78702104D01*
X94700500Y-78702104D01*
X94700500Y-76721457D01*
X98224499Y-76721457D01*
X98252379Y-76861614D01*
X98252381Y-76861620D01*
X98307069Y-76993650D01*
X98307074Y-76993659D01*
X98386467Y-77112478D01*
X98386470Y-77112482D01*
X98487517Y-77213529D01*
X98487521Y-77213532D01*
X98606340Y-77292925D01*
X98606346Y-77292928D01*
X98606347Y-77292929D01*
X98738380Y-77347619D01*
X98738384Y-77347619D01*
X98738385Y-77347620D01*
X98878542Y-77375500D01*
X98878545Y-77375500D01*
X99021457Y-77375500D01*
X99117224Y-77356450D01*
X99161620Y-77347619D01*
X99293653Y-77292929D01*
X99293658Y-77292925D01*
X99293661Y-77292924D01*
X99344117Y-77259210D01*
X99410794Y-77238331D01*
X99478174Y-77256815D01*
X99524865Y-77308793D01*
X99526838Y-77313217D01*
X99527074Y-77313659D01*
X99606467Y-77432478D01*
X99606470Y-77432482D01*
X99707517Y-77533529D01*
X99707521Y-77533532D01*
X99826340Y-77612925D01*
X99826349Y-77612930D01*
X99856258Y-77625318D01*
X99958380Y-77667619D01*
X99958384Y-77667619D01*
X99958385Y-77667620D01*
X100098542Y-77695500D01*
X100098545Y-77695500D01*
X100241457Y-77695500D01*
X100340552Y-77675788D01*
X100381620Y-77667619D01*
X100513653Y-77612929D01*
X100618490Y-77542878D01*
X100685167Y-77522001D01*
X100752547Y-77540485D01*
X100756279Y-77542884D01*
X100756342Y-77542926D01*
X100756353Y-77542932D01*
X100815583Y-77567465D01*
X100879556Y-77593964D01*
X100933959Y-77637803D01*
X100950242Y-77676142D01*
X100951412Y-77675788D01*
X100953181Y-77681620D01*
X101007869Y-77813650D01*
X101007874Y-77813659D01*
X101087267Y-77932478D01*
X101087270Y-77932482D01*
X101188317Y-78033529D01*
X101188321Y-78033532D01*
X101307140Y-78112925D01*
X101307146Y-78112928D01*
X101307147Y-78112929D01*
X101439180Y-78167619D01*
X101439184Y-78167619D01*
X101439185Y-78167620D01*
X101579342Y-78195500D01*
X101579345Y-78195500D01*
X101722257Y-78195500D01*
X101816551Y-78176742D01*
X101862420Y-78167619D01*
X101994453Y-78112929D01*
X102113279Y-78033532D01*
X102214332Y-77932479D01*
X102293729Y-77813653D01*
X102298954Y-77801037D01*
X102342792Y-77746632D01*
X102389325Y-77726868D01*
X102472020Y-77710419D01*
X102604053Y-77655729D01*
X102722879Y-77576332D01*
X102823932Y-77475279D01*
X102903329Y-77356453D01*
X102908049Y-77345057D01*
X108993663Y-77345057D01*
X109021543Y-77485214D01*
X109021545Y-77485220D01*
X109076233Y-77617250D01*
X109076238Y-77617259D01*
X109155631Y-77736078D01*
X109155634Y-77736082D01*
X109256681Y-77837129D01*
X109256685Y-77837132D01*
X109375504Y-77916525D01*
X109375513Y-77916530D01*
X109395735Y-77924906D01*
X109507544Y-77971219D01*
X109507548Y-77971219D01*
X109507549Y-77971220D01*
X109647706Y-77999100D01*
X109647709Y-77999100D01*
X109718130Y-77999100D01*
X109785169Y-78018785D01*
X109821230Y-78054207D01*
X109856570Y-78107097D01*
X109875669Y-78135681D01*
X109976717Y-78236729D01*
X109976721Y-78236732D01*
X110095540Y-78316125D01*
X110095546Y-78316128D01*
X110095547Y-78316129D01*
X110227580Y-78370819D01*
X110227584Y-78370819D01*
X110227585Y-78370820D01*
X110367742Y-78398700D01*
X110367745Y-78398700D01*
X110510657Y-78398700D01*
X110609104Y-78379117D01*
X110650820Y-78370819D01*
X110772747Y-78320314D01*
X110842217Y-78312846D01*
X110867652Y-78320314D01*
X110989580Y-78370819D01*
X110989584Y-78370819D01*
X110989585Y-78370820D01*
X111129742Y-78398700D01*
X111129745Y-78398700D01*
X111272657Y-78398700D01*
X111371104Y-78379117D01*
X111412820Y-78370819D01*
X111544853Y-78316129D01*
X111663679Y-78236732D01*
X111764732Y-78135679D01*
X111844129Y-78016853D01*
X111898819Y-77884820D01*
X111926700Y-77744655D01*
X111926700Y-77601745D01*
X111926700Y-77601742D01*
X111898820Y-77461585D01*
X111898819Y-77461584D01*
X111898819Y-77461580D01*
X111851614Y-77347618D01*
X111844130Y-77329549D01*
X111844125Y-77329540D01*
X111764732Y-77210721D01*
X111764729Y-77210717D01*
X111663682Y-77109670D01*
X111663678Y-77109667D01*
X111544859Y-77030274D01*
X111544850Y-77030269D01*
X111412820Y-76975581D01*
X111412814Y-76975579D01*
X111272657Y-76947700D01*
X111272655Y-76947700D01*
X111129745Y-76947700D01*
X111129743Y-76947700D01*
X110989585Y-76975579D01*
X110989575Y-76975582D01*
X110867652Y-77026084D01*
X110798183Y-77033553D01*
X110772748Y-77026084D01*
X110650824Y-76975582D01*
X110650814Y-76975579D01*
X110510657Y-76947700D01*
X110510655Y-76947700D01*
X110440234Y-76947700D01*
X110373195Y-76928015D01*
X110337133Y-76892592D01*
X110282696Y-76811121D01*
X110282694Y-76811118D01*
X110181646Y-76710070D01*
X110181642Y-76710067D01*
X110062823Y-76630674D01*
X110062814Y-76630669D01*
X109930784Y-76575981D01*
X109930778Y-76575979D01*
X109790621Y-76548100D01*
X109790619Y-76548100D01*
X109647709Y-76548100D01*
X109647707Y-76548100D01*
X109507549Y-76575979D01*
X109507543Y-76575981D01*
X109375513Y-76630669D01*
X109375504Y-76630674D01*
X109256685Y-76710067D01*
X109256681Y-76710070D01*
X109155634Y-76811117D01*
X109155631Y-76811121D01*
X109076238Y-76929940D01*
X109076233Y-76929949D01*
X109021545Y-77061979D01*
X109021543Y-77061985D01*
X108993664Y-77202142D01*
X108993664Y-77202145D01*
X108993664Y-77345055D01*
X108993664Y-77345057D01*
X108993663Y-77345057D01*
X102908049Y-77345057D01*
X102958019Y-77224420D01*
X102971177Y-77158273D01*
X102985900Y-77084257D01*
X102985900Y-76941342D01*
X102958020Y-76801185D01*
X102958019Y-76801184D01*
X102958019Y-76801180D01*
X102903329Y-76669147D01*
X102903328Y-76669146D01*
X102903325Y-76669140D01*
X102823932Y-76550321D01*
X102823929Y-76550317D01*
X102722882Y-76449270D01*
X102722878Y-76449267D01*
X102604059Y-76369874D01*
X102604050Y-76369869D01*
X102472020Y-76315181D01*
X102472014Y-76315179D01*
X102331857Y-76287300D01*
X102331855Y-76287300D01*
X102188945Y-76287300D01*
X102188943Y-76287300D01*
X102048785Y-76315179D01*
X102048779Y-76315181D01*
X101916749Y-76369869D01*
X101916742Y-76369873D01*
X101809015Y-76441854D01*
X101742338Y-76462731D01*
X101674958Y-76444246D01*
X101652444Y-76426432D01*
X101562482Y-76336470D01*
X101562478Y-76336467D01*
X101443659Y-76257074D01*
X101443650Y-76257069D01*
X101311620Y-76202381D01*
X101311614Y-76202379D01*
X101171457Y-76174500D01*
X101171455Y-76174500D01*
X101028545Y-76174500D01*
X101028543Y-76174500D01*
X100888385Y-76202379D01*
X100888379Y-76202381D01*
X100756349Y-76257069D01*
X100756342Y-76257073D01*
X100651508Y-76327121D01*
X100584831Y-76347998D01*
X100517451Y-76329513D01*
X100513724Y-76327118D01*
X100513657Y-76327073D01*
X100513650Y-76327069D01*
X100381620Y-76272381D01*
X100381614Y-76272379D01*
X100241457Y-76244500D01*
X100241455Y-76244500D01*
X100098545Y-76244500D01*
X100098543Y-76244500D01*
X99958385Y-76272379D01*
X99958379Y-76272381D01*
X99826349Y-76327069D01*
X99826342Y-76327073D01*
X99775880Y-76360791D01*
X99709202Y-76381668D01*
X99641822Y-76363183D01*
X99595133Y-76311204D01*
X99593161Y-76306782D01*
X99592925Y-76306340D01*
X99513532Y-76187521D01*
X99513529Y-76187517D01*
X99412482Y-76086470D01*
X99412478Y-76086467D01*
X99293660Y-76007075D01*
X99293650Y-76007069D01*
X99161620Y-75952381D01*
X99161614Y-75952379D01*
X99021457Y-75924500D01*
X99021455Y-75924500D01*
X98878545Y-75924500D01*
X98878543Y-75924500D01*
X98738385Y-75952379D01*
X98738379Y-75952381D01*
X98606349Y-76007069D01*
X98606340Y-76007074D01*
X98487521Y-76086467D01*
X98487517Y-76086470D01*
X98386470Y-76187517D01*
X98386467Y-76187521D01*
X98307074Y-76306340D01*
X98307069Y-76306349D01*
X98252381Y-76438379D01*
X98252379Y-76438385D01*
X98224500Y-76578542D01*
X98224500Y-76578545D01*
X98224500Y-76721455D01*
X98224500Y-76721457D01*
X98224499Y-76721457D01*
X94700500Y-76721457D01*
X94700500Y-75908104D01*
X104306300Y-75908104D01*
X104306300Y-76085495D01*
X104340903Y-76259458D01*
X104340906Y-76259467D01*
X104408783Y-76423340D01*
X104408790Y-76423353D01*
X104507335Y-76570834D01*
X104507338Y-76570838D01*
X104632761Y-76696261D01*
X104632765Y-76696264D01*
X104780246Y-76794809D01*
X104780259Y-76794816D01*
X104881487Y-76836745D01*
X104944134Y-76862694D01*
X104944136Y-76862694D01*
X104944141Y-76862696D01*
X105118104Y-76897299D01*
X105118107Y-76897300D01*
X105118109Y-76897300D01*
X105295493Y-76897300D01*
X105295494Y-76897299D01*
X105353482Y-76885764D01*
X105469458Y-76862696D01*
X105469461Y-76862694D01*
X105469466Y-76862694D01*
X105609335Y-76804758D01*
X105633340Y-76794816D01*
X105633340Y-76794815D01*
X105633347Y-76794813D01*
X105780835Y-76696264D01*
X105906264Y-76570835D01*
X106004813Y-76423347D01*
X106072694Y-76259466D01*
X106073171Y-76257071D01*
X106107105Y-76086470D01*
X106107300Y-76085491D01*
X106107300Y-75908109D01*
X106107300Y-75908106D01*
X106107299Y-75908104D01*
X106072696Y-75734141D01*
X106072693Y-75734132D01*
X106070158Y-75728013D01*
X106055723Y-75693163D01*
X106004816Y-75570259D01*
X106004809Y-75570246D01*
X105906264Y-75422765D01*
X105906261Y-75422761D01*
X105780838Y-75297338D01*
X105780834Y-75297335D01*
X105633353Y-75198790D01*
X105633340Y-75198783D01*
X105469467Y-75130906D01*
X105469458Y-75130903D01*
X105295494Y-75096300D01*
X105295491Y-75096300D01*
X105118109Y-75096300D01*
X105118106Y-75096300D01*
X104944141Y-75130903D01*
X104944132Y-75130906D01*
X104780259Y-75198783D01*
X104780246Y-75198790D01*
X104632765Y-75297335D01*
X104632761Y-75297338D01*
X104507338Y-75422761D01*
X104507335Y-75422765D01*
X104408790Y-75570246D01*
X104408783Y-75570259D01*
X104340906Y-75734132D01*
X104340903Y-75734141D01*
X104306300Y-75908104D01*
X94700500Y-75908104D01*
X94700500Y-75353479D01*
X94720185Y-75286440D01*
X94772989Y-75240685D01*
X94842147Y-75230741D01*
X94905703Y-75259766D01*
X94939060Y-75306024D01*
X94958716Y-75353479D01*
X94959988Y-75356549D01*
X94959990Y-75356553D01*
X95058535Y-75504034D01*
X95058538Y-75504038D01*
X95183961Y-75629461D01*
X95183965Y-75629464D01*
X95331446Y-75728009D01*
X95331459Y-75728016D01*
X95454363Y-75778923D01*
X95495334Y-75795894D01*
X95495336Y-75795894D01*
X95495341Y-75795896D01*
X95669304Y-75830499D01*
X95669307Y-75830500D01*
X95669309Y-75830500D01*
X95846693Y-75830500D01*
X95846694Y-75830499D01*
X95904682Y-75818964D01*
X96020658Y-75795896D01*
X96020661Y-75795894D01*
X96020666Y-75795894D01*
X96169753Y-75734141D01*
X96184540Y-75728016D01*
X96184540Y-75728015D01*
X96184547Y-75728013D01*
X96298709Y-75651732D01*
X96365386Y-75630854D01*
X96432766Y-75649338D01*
X96436491Y-75651732D01*
X96550653Y-75728013D01*
X96550655Y-75728014D01*
X96550659Y-75728016D01*
X96673563Y-75778923D01*
X96714534Y-75795894D01*
X96714536Y-75795894D01*
X96714541Y-75795896D01*
X96888504Y-75830499D01*
X96888507Y-75830500D01*
X96888509Y-75830500D01*
X97065893Y-75830500D01*
X97065894Y-75830499D01*
X97123882Y-75818964D01*
X97239858Y-75795896D01*
X97239861Y-75795894D01*
X97239866Y-75795894D01*
X97388953Y-75734141D01*
X97403740Y-75728016D01*
X97403740Y-75728015D01*
X97403747Y-75728013D01*
X97551235Y-75629464D01*
X97676664Y-75504035D01*
X97775213Y-75356547D01*
X97843094Y-75192666D01*
X97847520Y-75170419D01*
X97874191Y-75036332D01*
X97877700Y-75018691D01*
X97877700Y-74841309D01*
X97877700Y-74841306D01*
X97877699Y-74841304D01*
X97843096Y-74667341D01*
X97843094Y-74667338D01*
X97843094Y-74667334D01*
X97809945Y-74587304D01*
X99429500Y-74587304D01*
X99429500Y-74764695D01*
X99464103Y-74938658D01*
X99464106Y-74938667D01*
X99531983Y-75102540D01*
X99531990Y-75102553D01*
X99630535Y-75250034D01*
X99630538Y-75250038D01*
X99755961Y-75375461D01*
X99755965Y-75375464D01*
X99903446Y-75474009D01*
X99903459Y-75474016D01*
X99996604Y-75512597D01*
X100067334Y-75541894D01*
X100067336Y-75541894D01*
X100067341Y-75541896D01*
X100241304Y-75576499D01*
X100241307Y-75576500D01*
X100241309Y-75576500D01*
X100418693Y-75576500D01*
X100418694Y-75576499D01*
X100487108Y-75562891D01*
X100592658Y-75541896D01*
X100592661Y-75541894D01*
X100592666Y-75541894D01*
X100756547Y-75474013D01*
X100812565Y-75436581D01*
X100879238Y-75415704D01*
X100946618Y-75434187D01*
X100950346Y-75436583D01*
X101002338Y-75471324D01*
X101002349Y-75471330D01*
X101008834Y-75474016D01*
X101134380Y-75526019D01*
X101134384Y-75526019D01*
X101134385Y-75526020D01*
X101274542Y-75553900D01*
X101274545Y-75553900D01*
X101417457Y-75553900D01*
X101511751Y-75535142D01*
X101557620Y-75526019D01*
X101689653Y-75471329D01*
X101808479Y-75391932D01*
X101909532Y-75290879D01*
X101934567Y-75253410D01*
X101988178Y-75208605D01*
X102037670Y-75198300D01*
X102077857Y-75198300D01*
X102188545Y-75176282D01*
X102218020Y-75170419D01*
X102350053Y-75115729D01*
X102468879Y-75036332D01*
X102569932Y-74935279D01*
X102649329Y-74816453D01*
X102704019Y-74684420D01*
X102725278Y-74577546D01*
X102731900Y-74544257D01*
X102731900Y-74401342D01*
X102704020Y-74261185D01*
X102704019Y-74261184D01*
X102704019Y-74261180D01*
X102650507Y-74131990D01*
X102649330Y-74129149D01*
X102649325Y-74129140D01*
X102569932Y-74010321D01*
X102569929Y-74010317D01*
X102468882Y-73909270D01*
X102468878Y-73909267D01*
X102350059Y-73829874D01*
X102350050Y-73829869D01*
X102218020Y-73775181D01*
X102218014Y-73775179D01*
X102077857Y-73747300D01*
X102077855Y-73747300D01*
X101934945Y-73747300D01*
X101934943Y-73747300D01*
X101794785Y-73775179D01*
X101794779Y-73775181D01*
X101662749Y-73829869D01*
X101662740Y-73829874D01*
X101543921Y-73909267D01*
X101543917Y-73909270D01*
X101442870Y-74010317D01*
X101442866Y-74010322D01*
X101417833Y-74047789D01*
X101364222Y-74092595D01*
X101314730Y-74102900D01*
X101274540Y-74102900D01*
X101135911Y-74130475D01*
X101066319Y-74124248D01*
X101024039Y-74096539D01*
X100904038Y-73976538D01*
X100904034Y-73976535D01*
X100756553Y-73877990D01*
X100756540Y-73877983D01*
X100592667Y-73810106D01*
X100592658Y-73810103D01*
X100418694Y-73775500D01*
X100418691Y-73775500D01*
X100241309Y-73775500D01*
X100241306Y-73775500D01*
X100067341Y-73810103D01*
X100067332Y-73810106D01*
X99903459Y-73877983D01*
X99903446Y-73877990D01*
X99755965Y-73976535D01*
X99755961Y-73976538D01*
X99630538Y-74101961D01*
X99630535Y-74101965D01*
X99531990Y-74249446D01*
X99531983Y-74249459D01*
X99464106Y-74413332D01*
X99464103Y-74413341D01*
X99429500Y-74587304D01*
X97809945Y-74587304D01*
X97799474Y-74562025D01*
X97775216Y-74503459D01*
X97775209Y-74503446D01*
X97676664Y-74355965D01*
X97676661Y-74355961D01*
X97551238Y-74230538D01*
X97551234Y-74230535D01*
X97403753Y-74131990D01*
X97403740Y-74131983D01*
X97239867Y-74064106D01*
X97239858Y-74064103D01*
X97065894Y-74029500D01*
X97065891Y-74029500D01*
X96888509Y-74029500D01*
X96888506Y-74029500D01*
X96714541Y-74064103D01*
X96714532Y-74064106D01*
X96550659Y-74131983D01*
X96550646Y-74131990D01*
X96436491Y-74208267D01*
X96369813Y-74229145D01*
X96302433Y-74210660D01*
X96298709Y-74208267D01*
X96184553Y-74131990D01*
X96184540Y-74131983D01*
X96020667Y-74064106D01*
X96020658Y-74064103D01*
X95846694Y-74029500D01*
X95846691Y-74029500D01*
X95669309Y-74029500D01*
X95669306Y-74029500D01*
X95495341Y-74064103D01*
X95495332Y-74064106D01*
X95331459Y-74131983D01*
X95331446Y-74131990D01*
X95183965Y-74230535D01*
X95183961Y-74230538D01*
X95058538Y-74355961D01*
X95058535Y-74355965D01*
X94959990Y-74503446D01*
X94959983Y-74503459D01*
X94939061Y-74553972D01*
X94895220Y-74608376D01*
X94828926Y-74630441D01*
X94761227Y-74613162D01*
X94713616Y-74562025D01*
X94700500Y-74506520D01*
X94700500Y-72472135D01*
X103939500Y-72472135D01*
X103939500Y-74267870D01*
X103939501Y-74267876D01*
X103945908Y-74327483D01*
X103996202Y-74462328D01*
X103996206Y-74462335D01*
X104082452Y-74577544D01*
X104082455Y-74577547D01*
X104197664Y-74663793D01*
X104197671Y-74663797D01*
X104332517Y-74714091D01*
X104332516Y-74714091D01*
X104339444Y-74714835D01*
X104392127Y-74720500D01*
X106187872Y-74720499D01*
X106247483Y-74714091D01*
X106382331Y-74663796D01*
X106497546Y-74577546D01*
X106583796Y-74462331D01*
X106634091Y-74327483D01*
X106640500Y-74267873D01*
X106640499Y-72472128D01*
X106634091Y-72412517D01*
X106633209Y-72410153D01*
X106583797Y-72277671D01*
X106583793Y-72277664D01*
X106497547Y-72162455D01*
X106497544Y-72162452D01*
X106382335Y-72076206D01*
X106382328Y-72076202D01*
X106247482Y-72025908D01*
X106247483Y-72025908D01*
X106187883Y-72019501D01*
X106187881Y-72019500D01*
X106187873Y-72019500D01*
X106187864Y-72019500D01*
X104392129Y-72019500D01*
X104392123Y-72019501D01*
X104332516Y-72025908D01*
X104197671Y-72076202D01*
X104197664Y-72076206D01*
X104082455Y-72162452D01*
X104082452Y-72162455D01*
X103996206Y-72277664D01*
X103996202Y-72277671D01*
X103945908Y-72412517D01*
X103942359Y-72445532D01*
X103939501Y-72472123D01*
X103939500Y-72472135D01*
X94700500Y-72472135D01*
X94700500Y-71132904D01*
X100547100Y-71132904D01*
X100547100Y-71310295D01*
X100581703Y-71484258D01*
X100581706Y-71484267D01*
X100649583Y-71648140D01*
X100649590Y-71648153D01*
X100748135Y-71795634D01*
X100748138Y-71795638D01*
X100873561Y-71921061D01*
X100873565Y-71921064D01*
X101021046Y-72019609D01*
X101021059Y-72019616D01*
X101143963Y-72070523D01*
X101184934Y-72087494D01*
X101184936Y-72087494D01*
X101184941Y-72087496D01*
X101358904Y-72122099D01*
X101358907Y-72122100D01*
X101358909Y-72122100D01*
X101536293Y-72122100D01*
X101536294Y-72122099D01*
X101594282Y-72110564D01*
X101710258Y-72087496D01*
X101710261Y-72087494D01*
X101710266Y-72087494D01*
X101874147Y-72019613D01*
X102021635Y-71921064D01*
X102124783Y-71817915D01*
X102186104Y-71784431D01*
X102236653Y-71783980D01*
X102275031Y-71791614D01*
X102290544Y-71794700D01*
X102290545Y-71794700D01*
X102296786Y-71794700D01*
X102363825Y-71814385D01*
X102399888Y-71849810D01*
X102458864Y-71938074D01*
X102458870Y-71938082D01*
X102559917Y-72039129D01*
X102559921Y-72039132D01*
X102678740Y-72118525D01*
X102678749Y-72118530D01*
X102687368Y-72122100D01*
X102810780Y-72173219D01*
X102810784Y-72173219D01*
X102810785Y-72173220D01*
X102950942Y-72201100D01*
X102950945Y-72201100D01*
X103093857Y-72201100D01*
X103188151Y-72182342D01*
X103234020Y-72173219D01*
X103366053Y-72118529D01*
X103484879Y-72039132D01*
X103585932Y-71938079D01*
X103614781Y-71894904D01*
X110199100Y-71894904D01*
X110199100Y-72072295D01*
X110233703Y-72246258D01*
X110233706Y-72246267D01*
X110301583Y-72410140D01*
X110301590Y-72410153D01*
X110400135Y-72557634D01*
X110400138Y-72557638D01*
X110525561Y-72683061D01*
X110525565Y-72683064D01*
X110673046Y-72781609D01*
X110673059Y-72781616D01*
X110792302Y-72831007D01*
X110836934Y-72849494D01*
X110836936Y-72849494D01*
X110836941Y-72849496D01*
X111010904Y-72884099D01*
X111010907Y-72884100D01*
X111010909Y-72884100D01*
X111188293Y-72884100D01*
X111188294Y-72884099D01*
X111266320Y-72868579D01*
X111362258Y-72849496D01*
X111362261Y-72849494D01*
X111362266Y-72849494D01*
X111502135Y-72791558D01*
X111526140Y-72781616D01*
X111526140Y-72781615D01*
X111526147Y-72781613D01*
X111560732Y-72758504D01*
X128842700Y-72758504D01*
X128842700Y-72935895D01*
X128877303Y-73109858D01*
X128877306Y-73109867D01*
X128945183Y-73273740D01*
X128945190Y-73273753D01*
X129043735Y-73421234D01*
X129043738Y-73421238D01*
X129169161Y-73546661D01*
X129169165Y-73546664D01*
X129316646Y-73645209D01*
X129316659Y-73645216D01*
X129439563Y-73696123D01*
X129480534Y-73713094D01*
X129480536Y-73713094D01*
X129480541Y-73713096D01*
X129654504Y-73747699D01*
X129654507Y-73747700D01*
X129654509Y-73747700D01*
X129831893Y-73747700D01*
X129831894Y-73747699D01*
X129889882Y-73736164D01*
X130005858Y-73713096D01*
X130005861Y-73713094D01*
X130005866Y-73713094D01*
X130169747Y-73645213D01*
X130317235Y-73546664D01*
X130442664Y-73421235D01*
X130509683Y-73320935D01*
X141765530Y-73320935D01*
X141765530Y-75116670D01*
X141765531Y-75116676D01*
X141771938Y-75176283D01*
X141822232Y-75311128D01*
X141822236Y-75311135D01*
X141908482Y-75426344D01*
X141908485Y-75426347D01*
X142023694Y-75512593D01*
X142023701Y-75512597D01*
X142158547Y-75562891D01*
X142158546Y-75562891D01*
X142165474Y-75563635D01*
X142218157Y-75569300D01*
X144013902Y-75569299D01*
X144073513Y-75562891D01*
X144208361Y-75512596D01*
X144323576Y-75426346D01*
X144409826Y-75311131D01*
X144460121Y-75176283D01*
X144466530Y-75116673D01*
X144466529Y-73320928D01*
X144460121Y-73261317D01*
X144409826Y-73126469D01*
X144409825Y-73126468D01*
X144409823Y-73126464D01*
X144323577Y-73011255D01*
X144323574Y-73011252D01*
X144208365Y-72925006D01*
X144208358Y-72925002D01*
X144073512Y-72874708D01*
X144073513Y-72874708D01*
X144013913Y-72868301D01*
X144013911Y-72868300D01*
X144013903Y-72868300D01*
X144013894Y-72868300D01*
X142218159Y-72868300D01*
X142218153Y-72868301D01*
X142158546Y-72874708D01*
X142023701Y-72925002D01*
X142023694Y-72925006D01*
X141908485Y-73011252D01*
X141908482Y-73011255D01*
X141822236Y-73126464D01*
X141822232Y-73126471D01*
X141771938Y-73261317D01*
X141765531Y-73320916D01*
X141765531Y-73320923D01*
X141765530Y-73320935D01*
X130509683Y-73320935D01*
X130541213Y-73273747D01*
X130609094Y-73109866D01*
X130610419Y-73103208D01*
X130643699Y-72935895D01*
X130643700Y-72935893D01*
X130643700Y-72758506D01*
X130643699Y-72758504D01*
X130609096Y-72584541D01*
X130609093Y-72584532D01*
X130607058Y-72579620D01*
X130585770Y-72528225D01*
X130541216Y-72420659D01*
X130541209Y-72420646D01*
X130442664Y-72273165D01*
X130442661Y-72273161D01*
X130317238Y-72147738D01*
X130317234Y-72147735D01*
X130169753Y-72049190D01*
X130169740Y-72049183D01*
X130005867Y-71981306D01*
X130005858Y-71981303D01*
X129831894Y-71946700D01*
X129831891Y-71946700D01*
X129654509Y-71946700D01*
X129654506Y-71946700D01*
X129480541Y-71981303D01*
X129480532Y-71981306D01*
X129316659Y-72049183D01*
X129316646Y-72049190D01*
X129169165Y-72147735D01*
X129169161Y-72147738D01*
X129043738Y-72273161D01*
X129043735Y-72273165D01*
X128945190Y-72420646D01*
X128945183Y-72420659D01*
X128877306Y-72584532D01*
X128877303Y-72584541D01*
X128842700Y-72758504D01*
X111560732Y-72758504D01*
X111673635Y-72683064D01*
X111799064Y-72557635D01*
X111897613Y-72410147D01*
X111965494Y-72246266D01*
X111969595Y-72225653D01*
X111990192Y-72122100D01*
X112000100Y-72072291D01*
X112000100Y-72004257D01*
X113117299Y-72004257D01*
X113145179Y-72144414D01*
X113145181Y-72144420D01*
X113199869Y-72276450D01*
X113199874Y-72276459D01*
X113279267Y-72395278D01*
X113279270Y-72395282D01*
X113380317Y-72496329D01*
X113380321Y-72496332D01*
X113499140Y-72575725D01*
X113499149Y-72575730D01*
X113520399Y-72584532D01*
X113631180Y-72630419D01*
X113631184Y-72630419D01*
X113631185Y-72630420D01*
X113771342Y-72658300D01*
X113771345Y-72658300D01*
X113914257Y-72658300D01*
X114038232Y-72633639D01*
X114038231Y-72633639D01*
X114054420Y-72630419D01*
X114186453Y-72575729D01*
X114234516Y-72543613D01*
X114243496Y-72539495D01*
X114268684Y-72535831D01*
X114292976Y-72528225D01*
X114305133Y-72530530D01*
X114312638Y-72529439D01*
X114322124Y-72533752D01*
X114342643Y-72537643D01*
X114443980Y-72579619D01*
X114443984Y-72579619D01*
X114443985Y-72579620D01*
X114584142Y-72607500D01*
X114584145Y-72607500D01*
X114727057Y-72607500D01*
X114821351Y-72588742D01*
X114867220Y-72579619D01*
X114999253Y-72524929D01*
X115118079Y-72445532D01*
X115219132Y-72344479D01*
X115298529Y-72225653D01*
X115353219Y-72093620D01*
X115367941Y-72019609D01*
X115381100Y-71953457D01*
X115381100Y-71810542D01*
X115353220Y-71670385D01*
X115353219Y-71670384D01*
X115353219Y-71670380D01*
X115319572Y-71589149D01*
X115316060Y-71580669D01*
X115298925Y-71539304D01*
X133922700Y-71539304D01*
X133922700Y-71716695D01*
X133957303Y-71890658D01*
X133957306Y-71890667D01*
X134025183Y-72054540D01*
X134025190Y-72054553D01*
X134123735Y-72202034D01*
X134123738Y-72202038D01*
X134249161Y-72327461D01*
X134249165Y-72327464D01*
X134396646Y-72426009D01*
X134396659Y-72426016D01*
X134519563Y-72476923D01*
X134560534Y-72493894D01*
X134560536Y-72493894D01*
X134560541Y-72493896D01*
X134734504Y-72528499D01*
X134734507Y-72528500D01*
X134734509Y-72528500D01*
X134911893Y-72528500D01*
X134911894Y-72528499D01*
X134969882Y-72516964D01*
X135085858Y-72493896D01*
X135085861Y-72493894D01*
X135085866Y-72493894D01*
X135249747Y-72426013D01*
X135397235Y-72327464D01*
X135522664Y-72202035D01*
X135621213Y-72054547D01*
X135689094Y-71890666D01*
X135691327Y-71879444D01*
X135722807Y-71721179D01*
X135723700Y-71716691D01*
X135723700Y-71539309D01*
X135723700Y-71539306D01*
X135723699Y-71539304D01*
X135689096Y-71365341D01*
X135689093Y-71365332D01*
X135621216Y-71201459D01*
X135621209Y-71201446D01*
X135522664Y-71053965D01*
X135522661Y-71053961D01*
X135397238Y-70928538D01*
X135397234Y-70928535D01*
X135249753Y-70829990D01*
X135249740Y-70829983D01*
X135085867Y-70762106D01*
X135085858Y-70762103D01*
X134911894Y-70727500D01*
X134911891Y-70727500D01*
X134734509Y-70727500D01*
X134734506Y-70727500D01*
X134560541Y-70762103D01*
X134560532Y-70762106D01*
X134396659Y-70829983D01*
X134396646Y-70829990D01*
X134249165Y-70928535D01*
X134249161Y-70928538D01*
X134123738Y-71053961D01*
X134123735Y-71053965D01*
X134025190Y-71201446D01*
X134025183Y-71201459D01*
X133957306Y-71365332D01*
X133957303Y-71365341D01*
X133922700Y-71539304D01*
X115298925Y-71539304D01*
X115298530Y-71538350D01*
X115298529Y-71538347D01*
X115298527Y-71538344D01*
X115298525Y-71538340D01*
X115219132Y-71419521D01*
X115219129Y-71419517D01*
X115118082Y-71318470D01*
X115118078Y-71318467D01*
X114999259Y-71239074D01*
X114999250Y-71239069D01*
X114867220Y-71184381D01*
X114867214Y-71184379D01*
X114727057Y-71156500D01*
X114727055Y-71156500D01*
X114584145Y-71156500D01*
X114584143Y-71156500D01*
X114443985Y-71184379D01*
X114443979Y-71184381D01*
X114311948Y-71239070D01*
X114272098Y-71265697D01*
X114205420Y-71286574D01*
X114155756Y-71277155D01*
X114054424Y-71235182D01*
X114054414Y-71235179D01*
X113914257Y-71207300D01*
X113914255Y-71207300D01*
X113771345Y-71207300D01*
X113771343Y-71207300D01*
X113631185Y-71235179D01*
X113631179Y-71235181D01*
X113499149Y-71289869D01*
X113499140Y-71289874D01*
X113380321Y-71369267D01*
X113380317Y-71369270D01*
X113279270Y-71470317D01*
X113279267Y-71470321D01*
X113199874Y-71589140D01*
X113199869Y-71589149D01*
X113145181Y-71721179D01*
X113145179Y-71721185D01*
X113117300Y-71861342D01*
X113117300Y-71861345D01*
X113117300Y-72004255D01*
X113117300Y-72004257D01*
X113117299Y-72004257D01*
X112000100Y-72004257D01*
X112000100Y-71894909D01*
X111985185Y-71819926D01*
X111965496Y-71720941D01*
X111965493Y-71720932D01*
X111963736Y-71716691D01*
X111944552Y-71670375D01*
X111897616Y-71557059D01*
X111897609Y-71557046D01*
X111799064Y-71409565D01*
X111799061Y-71409561D01*
X111673638Y-71284138D01*
X111673634Y-71284135D01*
X111526153Y-71185590D01*
X111526140Y-71185583D01*
X111362267Y-71117706D01*
X111362258Y-71117703D01*
X111188294Y-71083100D01*
X111188291Y-71083100D01*
X111010909Y-71083100D01*
X111010906Y-71083100D01*
X110836941Y-71117703D01*
X110836932Y-71117706D01*
X110673059Y-71185583D01*
X110673046Y-71185590D01*
X110525565Y-71284135D01*
X110525561Y-71284138D01*
X110400138Y-71409561D01*
X110400135Y-71409565D01*
X110301590Y-71557046D01*
X110301583Y-71557059D01*
X110233706Y-71720932D01*
X110233703Y-71720941D01*
X110199100Y-71894904D01*
X103614781Y-71894904D01*
X103637206Y-71861342D01*
X103664880Y-71819926D01*
X103665325Y-71819259D01*
X103665325Y-71819258D01*
X103665329Y-71819253D01*
X103720019Y-71687220D01*
X103745910Y-71557059D01*
X103747900Y-71547057D01*
X103747900Y-71404142D01*
X103720020Y-71263985D01*
X103720019Y-71263984D01*
X103720019Y-71263980D01*
X103675499Y-71156500D01*
X103665330Y-71131949D01*
X103665325Y-71131940D01*
X103585932Y-71013121D01*
X103585929Y-71013117D01*
X103484882Y-70912070D01*
X103484878Y-70912067D01*
X103366059Y-70832674D01*
X103366050Y-70832669D01*
X103234020Y-70777981D01*
X103234014Y-70777979D01*
X103093857Y-70750100D01*
X103093855Y-70750100D01*
X103087614Y-70750100D01*
X103020575Y-70730415D01*
X102984512Y-70694990D01*
X102925535Y-70606725D01*
X102925529Y-70606717D01*
X102824482Y-70505670D01*
X102824478Y-70505667D01*
X102705659Y-70426274D01*
X102705650Y-70426269D01*
X102573620Y-70371581D01*
X102573614Y-70371579D01*
X102433457Y-70343700D01*
X102433455Y-70343700D01*
X102290545Y-70343700D01*
X102290543Y-70343700D01*
X102150385Y-70371579D01*
X102150379Y-70371581D01*
X102018346Y-70426271D01*
X102017140Y-70427077D01*
X102016411Y-70427304D01*
X102012977Y-70429141D01*
X102012628Y-70428489D01*
X101950462Y-70447951D01*
X101883083Y-70429463D01*
X101879394Y-70427093D01*
X101874147Y-70423587D01*
X101874143Y-70423585D01*
X101874139Y-70423583D01*
X101710267Y-70355706D01*
X101710258Y-70355703D01*
X101536294Y-70321100D01*
X101536291Y-70321100D01*
X101358909Y-70321100D01*
X101358906Y-70321100D01*
X101184941Y-70355703D01*
X101184932Y-70355706D01*
X101021059Y-70423583D01*
X101021046Y-70423590D01*
X100873565Y-70522135D01*
X100873561Y-70522138D01*
X100748138Y-70647561D01*
X100748135Y-70647565D01*
X100649590Y-70795046D01*
X100649583Y-70795059D01*
X100581706Y-70958932D01*
X100581703Y-70958941D01*
X100547100Y-71132904D01*
X94700500Y-71132904D01*
X94700500Y-69972257D01*
X133284899Y-69972257D01*
X133312779Y-70112414D01*
X133312781Y-70112420D01*
X133367469Y-70244450D01*
X133367474Y-70244459D01*
X133446867Y-70363278D01*
X133446870Y-70363282D01*
X133547917Y-70464329D01*
X133547921Y-70464332D01*
X133666740Y-70543725D01*
X133666746Y-70543728D01*
X133666747Y-70543729D01*
X133798780Y-70598419D01*
X133798784Y-70598419D01*
X133798785Y-70598420D01*
X133938942Y-70626300D01*
X133938945Y-70626300D01*
X134081857Y-70626300D01*
X134180304Y-70606717D01*
X134222020Y-70598419D01*
X134354053Y-70543729D01*
X134472879Y-70464332D01*
X134573932Y-70363279D01*
X134653329Y-70244453D01*
X134708019Y-70112420D01*
X134735900Y-69972255D01*
X134735900Y-69829345D01*
X134735900Y-69829342D01*
X134708020Y-69689185D01*
X134708019Y-69689184D01*
X134708019Y-69689180D01*
X134663299Y-69581216D01*
X134653330Y-69557149D01*
X134653325Y-69557140D01*
X134573932Y-69438321D01*
X134573929Y-69438317D01*
X134472882Y-69337270D01*
X134472878Y-69337267D01*
X134354059Y-69257874D01*
X134354050Y-69257869D01*
X134222020Y-69203181D01*
X134222014Y-69203179D01*
X134081857Y-69175300D01*
X134081855Y-69175300D01*
X133938945Y-69175300D01*
X133831025Y-69196766D01*
X133831013Y-69196768D01*
X133798785Y-69203179D01*
X133798779Y-69203181D01*
X133666749Y-69257869D01*
X133666740Y-69257874D01*
X133547921Y-69337267D01*
X133547917Y-69337270D01*
X133446870Y-69438317D01*
X133446867Y-69438321D01*
X133367474Y-69557140D01*
X133367469Y-69557149D01*
X133312781Y-69689179D01*
X133312779Y-69689185D01*
X133284900Y-69829342D01*
X133284900Y-69829345D01*
X133284900Y-69972255D01*
X133284900Y-69972257D01*
X133284899Y-69972257D01*
X94700500Y-69972257D01*
X94700500Y-69311857D01*
X98791699Y-69311857D01*
X98819579Y-69452014D01*
X98819581Y-69452020D01*
X98874269Y-69584050D01*
X98874274Y-69584059D01*
X98953667Y-69702878D01*
X98953670Y-69702882D01*
X99054717Y-69803929D01*
X99054721Y-69803932D01*
X99173540Y-69883325D01*
X99173546Y-69883328D01*
X99173547Y-69883329D01*
X99305580Y-69938019D01*
X99305584Y-69938019D01*
X99305585Y-69938020D01*
X99445742Y-69965900D01*
X99445745Y-69965900D01*
X99588657Y-69965900D01*
X99682951Y-69947142D01*
X99728820Y-69938019D01*
X99860853Y-69883329D01*
X99979679Y-69803932D01*
X100080732Y-69702879D01*
X100160129Y-69584053D01*
X100214819Y-69452020D01*
X100233673Y-69357235D01*
X100242700Y-69311857D01*
X100242700Y-69168942D01*
X100214820Y-69028785D01*
X100214819Y-69028784D01*
X100214819Y-69028780D01*
X100160129Y-68896747D01*
X100160128Y-68896746D01*
X100160125Y-68896740D01*
X100080732Y-68777921D01*
X100080729Y-68777917D01*
X99997316Y-68694504D01*
X118377900Y-68694504D01*
X118377900Y-68871895D01*
X118412503Y-69045858D01*
X118412506Y-69045867D01*
X118480383Y-69209740D01*
X118480390Y-69209753D01*
X118578935Y-69357234D01*
X118578938Y-69357238D01*
X118704361Y-69482661D01*
X118704365Y-69482664D01*
X118851846Y-69581209D01*
X118851859Y-69581216D01*
X118974763Y-69632123D01*
X119015734Y-69649094D01*
X119015736Y-69649094D01*
X119015741Y-69649096D01*
X119189704Y-69683699D01*
X119189707Y-69683700D01*
X119189709Y-69683700D01*
X119367093Y-69683700D01*
X119367094Y-69683699D01*
X119425082Y-69672164D01*
X119541058Y-69649096D01*
X119541061Y-69649094D01*
X119541066Y-69649094D01*
X119704947Y-69581213D01*
X119852435Y-69482664D01*
X119977864Y-69357235D01*
X120076413Y-69209747D01*
X120144294Y-69045866D01*
X120178900Y-68871891D01*
X120178900Y-68694509D01*
X120178900Y-68694506D01*
X120178899Y-68694504D01*
X120144296Y-68520541D01*
X120144293Y-68520532D01*
X120076416Y-68356659D01*
X120076409Y-68356646D01*
X119977864Y-68209165D01*
X119977861Y-68209161D01*
X119852438Y-68083738D01*
X119852434Y-68083735D01*
X119704953Y-67985190D01*
X119704940Y-67985183D01*
X119541067Y-67917306D01*
X119541058Y-67917303D01*
X119367094Y-67882700D01*
X119367091Y-67882700D01*
X119189709Y-67882700D01*
X119189706Y-67882700D01*
X119015741Y-67917303D01*
X119015732Y-67917306D01*
X118851859Y-67985183D01*
X118851846Y-67985190D01*
X118704365Y-68083735D01*
X118704361Y-68083738D01*
X118578938Y-68209161D01*
X118578935Y-68209165D01*
X118480390Y-68356646D01*
X118480383Y-68356659D01*
X118412506Y-68520532D01*
X118412503Y-68520541D01*
X118377900Y-68694504D01*
X99997316Y-68694504D01*
X99979682Y-68676870D01*
X99979678Y-68676867D01*
X99860859Y-68597474D01*
X99860850Y-68597469D01*
X99728820Y-68542781D01*
X99728814Y-68542779D01*
X99588657Y-68514900D01*
X99588655Y-68514900D01*
X99445745Y-68514900D01*
X99445743Y-68514900D01*
X99305585Y-68542779D01*
X99305579Y-68542781D01*
X99173549Y-68597469D01*
X99173540Y-68597474D01*
X99054721Y-68676867D01*
X99054717Y-68676870D01*
X98953670Y-68777917D01*
X98953667Y-68777921D01*
X98874274Y-68896740D01*
X98874269Y-68896749D01*
X98819581Y-69028779D01*
X98819579Y-69028785D01*
X98791700Y-69168942D01*
X98791700Y-69168945D01*
X98791700Y-69311855D01*
X98791700Y-69311857D01*
X98791699Y-69311857D01*
X94700500Y-69311857D01*
X94700500Y-66467057D01*
X120534099Y-66467057D01*
X120561979Y-66607214D01*
X120561981Y-66607220D01*
X120616669Y-66739250D01*
X120616674Y-66739259D01*
X120696067Y-66858078D01*
X120696070Y-66858082D01*
X120797117Y-66959129D01*
X120797121Y-66959132D01*
X120915940Y-67038525D01*
X120915946Y-67038528D01*
X120915947Y-67038529D01*
X121047980Y-67093219D01*
X121047984Y-67093219D01*
X121047985Y-67093220D01*
X121188142Y-67121100D01*
X121188145Y-67121100D01*
X121331057Y-67121100D01*
X121425351Y-67102342D01*
X121471220Y-67093219D01*
X121531049Y-67068436D01*
X121600516Y-67060968D01*
X121662995Y-67092242D01*
X121698648Y-67152331D01*
X121702500Y-67182998D01*
X121702500Y-67229055D01*
X121702500Y-67229057D01*
X121702499Y-67229057D01*
X121730379Y-67369214D01*
X121730381Y-67369220D01*
X121785069Y-67501250D01*
X121785074Y-67501259D01*
X121864467Y-67620078D01*
X121864470Y-67620082D01*
X121965517Y-67721129D01*
X121965521Y-67721132D01*
X122084340Y-67800525D01*
X122084346Y-67800528D01*
X122084347Y-67800529D01*
X122216380Y-67855219D01*
X122216384Y-67855219D01*
X122216385Y-67855220D01*
X122356542Y-67883100D01*
X122356545Y-67883100D01*
X122499457Y-67883100D01*
X122593751Y-67864342D01*
X122639620Y-67855219D01*
X122771653Y-67800529D01*
X122890479Y-67721132D01*
X122991532Y-67620079D01*
X123070929Y-67501253D01*
X123125619Y-67369220D01*
X123136942Y-67312296D01*
X123153500Y-67229057D01*
X123153500Y-67086142D01*
X123125620Y-66945985D01*
X123125619Y-66945984D01*
X123125619Y-66945980D01*
X123070929Y-66813947D01*
X123070928Y-66813946D01*
X123070925Y-66813940D01*
X122991532Y-66695121D01*
X122991529Y-66695117D01*
X122890482Y-66594070D01*
X122890478Y-66594067D01*
X122771659Y-66514674D01*
X122771649Y-66514669D01*
X122687135Y-66479662D01*
X122680087Y-66473982D01*
X122671316Y-66471744D01*
X122653307Y-66452402D01*
X122632732Y-66435821D01*
X122629873Y-66427232D01*
X122623705Y-66420607D01*
X122619012Y-66394599D01*
X122610667Y-66369526D01*
X122612577Y-66358937D01*
X122612355Y-66357704D01*
X123356300Y-66357704D01*
X123356300Y-66535095D01*
X123390903Y-66709058D01*
X123390906Y-66709067D01*
X123458783Y-66872940D01*
X123458790Y-66872953D01*
X123557335Y-67020434D01*
X123557338Y-67020438D01*
X123682761Y-67145861D01*
X123682765Y-67145864D01*
X123830246Y-67244409D01*
X123830259Y-67244416D01*
X123953163Y-67295323D01*
X123994134Y-67312294D01*
X123994136Y-67312294D01*
X123994141Y-67312296D01*
X124168104Y-67346899D01*
X124168107Y-67346900D01*
X124168109Y-67346900D01*
X124345493Y-67346900D01*
X124345494Y-67346899D01*
X124403482Y-67335364D01*
X124519458Y-67312296D01*
X124519461Y-67312294D01*
X124519466Y-67312294D01*
X124683347Y-67244413D01*
X124830835Y-67145864D01*
X124956264Y-67020435D01*
X125054813Y-66872947D01*
X125122694Y-66709066D01*
X125157300Y-66535091D01*
X125157300Y-66357709D01*
X125157300Y-66357706D01*
X125157299Y-66357704D01*
X125122696Y-66183741D01*
X125122693Y-66183732D01*
X125120158Y-66177613D01*
X125079339Y-66079064D01*
X125054816Y-66019859D01*
X125054809Y-66019846D01*
X124956264Y-65872365D01*
X124956261Y-65872361D01*
X124830838Y-65746938D01*
X124830834Y-65746935D01*
X124683353Y-65648390D01*
X124683340Y-65648383D01*
X124519467Y-65580506D01*
X124519458Y-65580503D01*
X124345494Y-65545900D01*
X124345491Y-65545900D01*
X124168109Y-65545900D01*
X124168106Y-65545900D01*
X123994141Y-65580503D01*
X123994132Y-65580506D01*
X123830259Y-65648383D01*
X123830246Y-65648390D01*
X123682765Y-65746935D01*
X123682761Y-65746938D01*
X123557338Y-65872361D01*
X123557335Y-65872365D01*
X123458790Y-66019846D01*
X123458783Y-66019859D01*
X123390906Y-66183732D01*
X123390903Y-66183741D01*
X123356300Y-66357704D01*
X122612355Y-66357704D01*
X122611298Y-66351848D01*
X122620026Y-66317650D01*
X122668419Y-66200820D01*
X122696300Y-66060655D01*
X122696300Y-65917745D01*
X122696300Y-65917742D01*
X122668420Y-65777585D01*
X122668419Y-65777584D01*
X122668419Y-65777580D01*
X122614907Y-65648390D01*
X122613730Y-65645549D01*
X122613725Y-65645540D01*
X122534332Y-65526721D01*
X122534329Y-65526717D01*
X122433282Y-65425670D01*
X122433278Y-65425667D01*
X122314459Y-65346274D01*
X122314450Y-65346269D01*
X122182420Y-65291581D01*
X122182414Y-65291579D01*
X122042257Y-65263700D01*
X122042255Y-65263700D01*
X121899345Y-65263700D01*
X121899343Y-65263700D01*
X121759185Y-65291579D01*
X121759179Y-65291581D01*
X121627149Y-65346269D01*
X121627140Y-65346274D01*
X121508321Y-65425667D01*
X121508317Y-65425670D01*
X121407270Y-65526717D01*
X121407264Y-65526725D01*
X121348288Y-65614990D01*
X121294676Y-65659796D01*
X121245186Y-65670100D01*
X121188143Y-65670100D01*
X121047985Y-65697979D01*
X121047979Y-65697981D01*
X120915949Y-65752669D01*
X120915940Y-65752674D01*
X120797121Y-65832067D01*
X120797117Y-65832070D01*
X120696070Y-65933117D01*
X120696067Y-65933121D01*
X120616674Y-66051940D01*
X120616669Y-66051949D01*
X120561981Y-66183979D01*
X120561979Y-66183985D01*
X120534100Y-66324142D01*
X120534100Y-66324145D01*
X120534100Y-66467055D01*
X120534100Y-66467057D01*
X120534099Y-66467057D01*
X94700500Y-66467057D01*
X94700500Y-65488973D01*
X94720185Y-65421934D01*
X94772989Y-65376179D01*
X94824500Y-65364973D01*
X106733477Y-65364973D01*
X114475025Y-65364973D01*
X114508107Y-65367194D01*
X114514684Y-65364973D01*
X114521627Y-65364973D01*
X114552262Y-65352283D01*
X114583678Y-65341675D01*
X114588904Y-65337105D01*
X114595319Y-65334449D01*
X114618767Y-65311000D01*
X114641755Y-65290904D01*
X116091900Y-65290904D01*
X116091900Y-65468295D01*
X116126503Y-65642258D01*
X116126506Y-65642267D01*
X116194383Y-65806140D01*
X116194390Y-65806153D01*
X116292935Y-65953634D01*
X116292938Y-65953638D01*
X116418361Y-66079061D01*
X116418365Y-66079064D01*
X116565846Y-66177609D01*
X116565859Y-66177616D01*
X116688763Y-66228523D01*
X116729734Y-66245494D01*
X116729736Y-66245494D01*
X116729741Y-66245496D01*
X116903704Y-66280099D01*
X116903707Y-66280100D01*
X116903709Y-66280100D01*
X117081093Y-66280100D01*
X117081094Y-66280099D01*
X117139082Y-66268564D01*
X117255058Y-66245496D01*
X117255061Y-66245494D01*
X117255066Y-66245494D01*
X117311941Y-66221935D01*
X117356470Y-66203492D01*
X117418940Y-66177616D01*
X117418940Y-66177615D01*
X117418947Y-66177613D01*
X117566435Y-66079064D01*
X117691864Y-65953635D01*
X117790413Y-65806147D01*
X117858294Y-65642266D01*
X117892900Y-65468291D01*
X117892900Y-65290909D01*
X117892900Y-65290906D01*
X117892899Y-65290904D01*
X117858296Y-65116941D01*
X117858293Y-65116932D01*
X117790416Y-64953059D01*
X117790409Y-64953046D01*
X117691864Y-64805565D01*
X117691861Y-64805561D01*
X117566438Y-64680138D01*
X117566434Y-64680135D01*
X117418953Y-64581590D01*
X117418940Y-64581583D01*
X117255067Y-64513706D01*
X117255058Y-64513703D01*
X117081094Y-64479100D01*
X117081091Y-64479100D01*
X116903709Y-64479100D01*
X116903706Y-64479100D01*
X116729741Y-64513703D01*
X116729732Y-64513706D01*
X116565859Y-64581583D01*
X116565846Y-64581590D01*
X116418365Y-64680135D01*
X116418361Y-64680138D01*
X116292938Y-64805561D01*
X116292935Y-64805565D01*
X116194390Y-64953046D01*
X116194383Y-64953059D01*
X116126506Y-65116932D01*
X116126503Y-65116941D01*
X116091900Y-65290904D01*
X114641755Y-65290904D01*
X116357460Y-63791074D01*
X117076230Y-63162742D01*
X117139658Y-63133440D01*
X117157841Y-63132100D01*
X123460118Y-63132100D01*
X128139500Y-63132100D01*
X128206539Y-63151785D01*
G37*
%TD.AperFunction*%
%TD*%
M02*
